<?xml version="1.0" encoding="utf-8"?>
<!-- Generator: Adobe Illustrator 25.3.1, SVG Export Plug-In . SVG Version: 6.00 Build 0)  -->
<svg version="1.1" id="图层_1" xmlns="http://www.w3.org/2000/svg" xmlns:xlink="http://www.w3.org/1999/xlink" x="0px" y="0px"
	 viewBox="0 0 387.4 208.1" style="enable-background:new 0 0 387.4 208.1;" xml:space="preserve">
<style type="text/css">
	.st0{fill:#9E9E9E;}
	.st1{opacity:0.6;enable-background:new    ;}
	.st2{opacity:0.5;enable-background:new    ;}
</style>
<g id="图层_2_1_">
	<g id="图层_1-2">
		<g id="A320">
			<g>
				<path class="st0" d="M387.3,208.1l-205.6-3.3c-33.2,0.2-66.6-3.3-99.1-10.5c-31.3-6.5-53.6-15.1-70-27l-0.1-0.1
					C4.2,159.8-0.2,150.7,0,141.6c0.2-8.7,4.6-17,12.5-23.4c14.6-11.9,31-21.2,48.7-27.6l4.5-4.6c7.9-8,15.4-15.6,19-18.8
					c16-13.9,39-29.5,88.6-39.1c47.7-9.3,115.8-12.7,214.1-10.8l-0.1,3c-98.1-1.9-165.9,1.5-213.4,10.7
					c-48.9,9.5-71.5,24.8-87.2,38.4c-3.6,3.1-11,10.7-18.9,18.6l-5,5.1l-0.3,0.1c-17.5,6.3-33.7,15.5-48.1,27.2
					c-7.3,6-11.2,13.3-11.4,21.2c-0.2,8.2,3.9,16.4,11.4,23.1c16.1,11.6,37.9,20.1,68.8,26.5c32.3,7.1,65.4,10.6,98.5,10.4
					l205.7,3.3L387.3,208.1z"/>
			</g>
			<g>
				<path class="st0" d="M238.5,22.4L254.7,0h6.5l-5.4,21.3L238.5,22.4z M255.7,2l-13.1,18.2l11.6-0.7L258.6,2H255.7z"/>
			</g>
			<g>
				<polygon class="st0" points="40.5,180.8 40.3,116.8 32.4,106.1 33.2,105.5 41.3,116.5 41.5,180.7 				"/>
			</g>
			<g>
				<path class="st0" d="M81.3,151.3l-2-0.1l0.1-1l2,0.1L81.3,151.3z M77.2,151l-2-0.1l0.1-1l2,0.1L77.2,151z M73.1,150.7l-2-0.1
					l0.1-1l2,0.1L73.1,150.7z M69.1,150.4l-1.9-0.1v-1h0.1l1.9,0.1L69.1,150.4z M83.3,150.2l-0.8-0.5c0.1-0.2,0.2-0.4,0.2-0.7v-1.1
					h1v1.1C83.6,149.4,83.5,149.8,83.3,150.2z M65,148.8c-0.1-0.3-0.2-0.6-0.2-0.9v-1.3h1v1.3c0,0.2,0,0.4,0.1,0.5L65,148.8z
					 M83.6,145.9h-1v-2h1V145.9z M65.8,144.6h-1v-2h1V144.6z M83.6,141.8h-1v-2h1V141.8z M65.8,140.5h-1v-2h1V140.5z M83.6,137.7h-1
					v-2h1V137.7z M65.8,136.4h-1v-1.7c0-0.2,0-0.3,0.1-0.5l1,0.2c0,0.1,0,0.2,0,0.3L65.8,136.4L65.8,136.4z M83.6,133.6h-1v-0.8
					c0-0.3-0.1-0.6-0.3-0.8l0.8-0.6c0.3,0.4,0.5,0.9,0.5,1.5V133.6z M66.9,133.5l-0.2-1c0.2,0,0.3-0.1,0.5-0.1l1.6-0.2l0.1,1
					l-1.6,0.2C67.1,133.5,67,133.5,66.9,133.5z M70.9,133l-0.1-1l2-0.3l0.1,1L70.9,133z M74.9,132.4l-0.1-1l2-0.3l0.1,1L74.9,132.4z
					 M79,131.8l-0.1-1l2-0.3l0.1,1L79,131.8z"/>
			</g>
			<g class="st1">
				<ellipse class="st0" cx="74.4" cy="140.9" rx="3.8" ry="4.6"/>
			</g>
			<g>
				<path class="st0" d="M279.1,162.1c-46.9,0-91.7-0.5-126.6-1.4c-48.3-1.3-83.8-4.7-111.6-10.9l0.2-1
					c27.7,6.1,63.1,9.6,111.4,10.8c43.3,1.1,101.9,1.6,160.6,1.3v1C301.7,162.1,290.3,162.1,279.1,162.1z"/>
			</g>
			<g>
				<rect x="152.3" y="34.3" class="st0" width="1" height="125.9"/>
			</g>
			<g>
				<rect x="312.6" y="18.5" class="st0" width="1" height="186.9"/>
			</g>
			<g>
				<rect x="313.1" y="100.1" class="st0" width="74.2" height="1"/>
			</g>
			<g>
				
					<rect x="349.7" y="152.5" transform="matrix(8.890291e-03 -1 1 8.890291e-03 157.4851 538.1929)" class="st0" width="1" height="74.3"/>
			</g>
			<g>
				<path class="st0" d="M122,70.6h13.2c0.5,0,0.9,0.2,1.3,0.5l3.1,3.2c0.2,0.2,0.4,0.5,0.4,0.8v16c0,1.3-1.1,2.4-2.4,2.4l0,0H122
					c-0.7,0-1.3-0.6-1.3-1.3l0,0V71.9C120.7,71.2,121.3,70.6,122,70.6L122,70.6z"/>
			</g>
			<g>
				<path class="st0" d="M242,128.2h-35.8c-2.8,0-5-2.3-5-5V49.8c0-2.8,2.3-5,5-5H242c2.8,0,5,2.3,5,5v73.4
					C247.1,126,244.8,128.2,242,128.2z M206.3,46.7c-1.7,0-3,1.4-3,3v73.4c0,1.7,1.4,3,3,3H242c1.7,0,3-1.4,3-3V49.8
					c0-1.7-1.4-3-3-3L206.3,46.7L206.3,46.7z"/>
			</g>
			<g class="st2">
				<path class="st0" d="M202.2,122.5l-4.6,1.8v3.5l3.9,3.6H247l3.5-3.8v-3.4l-4.5-1.7v1.3c0,1.9-1.5,3.4-3.4,3.4h-37.1
					c-1.9,0-3.4-1.5-3.4-3.4l0,0L202.2,122.5L202.2,122.5z"/>
			</g>
			<g>
				<path class="st0" d="M101.9,70.9H114c0.7,0,1.3,0.5,1.3,1.2l0,0v19.3c0,1.3-1,2.3-2.3,2.3h-8L87,90c-0.5-0.1-0.9-0.7-0.7-1.2
					c0-0.1,0.1-0.3,0.2-0.4l14.1-17C100.9,71.2,101.4,70.9,101.9,70.9z"/>
			</g>
			<g>
				<path class="st0" d="M275.7,74.6L275.7,74.6c3,0,5.4,2.4,5.4,5.4v4.7c0,3-2.4,5.4-5.4,5.4l0,0c-3,0-5.4-2.4-5.4-5.4V80
					C270.2,77.1,272.6,74.6,275.7,74.6z"/>
			</g>
			<g>
				<path class="st0" d="M300.2,74.6L300.2,74.6c3,0,5.4,2.4,5.4,5.4v4.7c0,3-2.4,5.4-5.4,5.4l0,0c-3,0-5.4-2.4-5.4-5.4V80
					C294.8,77.1,297.2,74.6,300.2,74.6z"/>
			</g>
			<g>
				<path class="st0" d="M324.8,74.6L324.8,74.6c3,0,5.4,2.4,5.4,5.4v4.7c0,3-2.4,5.4-5.4,5.4l0,0c-3,0-5.4-2.4-5.4-5.4V80
					C319.3,77.1,321.8,74.6,324.8,74.6z"/>
			</g>
			<g>
				<path class="st0" d="M349.3,74.6L349.3,74.6c3,0,5.4,2.4,5.4,5.4v4.7c0,3-2.4,5.4-5.4,5.4l0,0c-3,0-5.4-2.4-5.4-5.4V80
					C343.9,77.1,346.3,74.6,349.3,74.6z"/>
			</g>
			<g>
				<path class="st0" d="M373.9,74.5L373.9,74.5c3,0,5.4,2.4,5.4,5.4v4.7c0,3-2.4,5.4-5.4,5.4l0,0c-3,0-5.4-2.4-5.4-5.4V80
					C368.5,77,370.9,74.5,373.9,74.5z"/>
			</g>
			<g>
				<circle class="st0" cx="234.5" cy="80.6" r="4.3"/>
			</g>
			<g>
				<path class="st0" d="M80.7,89.5l15.5-17.3c0.2-0.2,0.2-0.5-0.1-0.7c-0.1-0.1-0.2-0.1-0.3-0.1L84.4,72c-0.4,0-0.9,0.2-1.2,0.5
					L64.8,91c-0.2,0.2-0.2,0.4,0,0.6c0.1,0.1,0.2,0.2,0.4,0.1l14-1.4C79.7,90.2,80.3,90,80.7,89.5z"/>
			</g>
			<g>
				<path class="st0" d="M373.9,121.1c-1.5,0-2.8-1.3-2.8-2.8v-1c0-1.5,1.3-2.8,2.8-2.8s2.8,1.3,2.8,2.8v1
					C376.7,119.8,375.4,121.1,373.9,121.1z M373.9,115.5c-1,0-1.8,0.8-1.8,1.8v1c0,1,0.8,1.8,1.8,1.8s1.8-0.8,1.8-1.8v-1
					C375.7,116.3,374.9,115.5,373.9,115.5z"/>
			</g>
			<g>
				<path class="st0" d="M309.5,194.4h-22.8c-1.3,0-2.4-1.1-2.4-2.4v-15.6c0-1.3,1.1-2.4,2.4-2.4h22.8c1.3,0,2.4,1.1,2.4,2.4V192
					C311.9,193.3,310.8,194.4,309.5,194.4z M286.6,175c-0.8,0-1.4,0.6-1.4,1.4V192c0,0.8,0.6,1.4,1.4,1.4h22.8
					c0.8,0,1.4-0.6,1.4-1.4v-15.6c0-0.8-0.6-1.4-1.4-1.4H286.6z"/>
			</g>
			<g class="st1">
				<ellipse class="st0" cx="298.3" cy="184.5" rx="8" ry="4.5"/>
			</g>
			<g>
				<path class="st0" d="M131.1,174.1c-1.9,0-3.3-1.1-3.3-2.5s1.5-2.5,3.3-2.5s3.4,1.1,3.4,2.5S133,174.1,131.1,174.1z M131.1,170.2
					c-1.3,0-2.3,0.7-2.3,1.5s1.1,1.5,2.3,1.5c1.3,0,2.4-0.7,2.4-1.5S132.4,170.2,131.1,170.2z"/>
			</g>
			<g>
				<path class="st0" d="M131.9,189.4c-1.9,0-3.4-1.1-3.4-2.5s1.5-2.5,3.4-2.5s3.3,1.1,3.3,2.5S133.8,189.4,131.9,189.4z
					 M131.9,185.5c-1.3,0-2.4,0.7-2.4,1.5s1.1,1.5,2.4,1.5c1.3,0,2.3-0.7,2.3-1.5S133.2,185.5,131.9,185.5z"/>
			</g>
			<g>
				<path class="st0" d="M180.6,186.6H166c-1.5,0-2.7-1.2-2.7-2.6v-9.8c0-1.5,1.2-2.7,2.7-2.7h14.7c1.5,0,2.6,1.2,2.6,2.7v9.8
					C183.3,185.5,182.1,186.6,180.6,186.6z M166,172.5c-0.9,0-1.7,0.7-1.7,1.7v9.8c0,0.9,0.7,1.6,1.7,1.6h14.7
					c0.9,0,1.6-0.7,1.6-1.6v-9.8c0-0.9-0.7-1.7-1.6-1.7H166z"/>
			</g>
			<g>
				<circle class="st0" cx="324.8" cy="127.2" r="2.3"/>
			</g>
		</g>
	</g>
</g>
</svg>
