<?xml version="1.0" encoding="utf-8"?>
<!-- Generator: Adobe Illustrator 25.3.1, SVG Export Plug-In . SVG Version: 6.00 Build 0)  -->
<svg version="1.1" id="图层_1" xmlns="http://www.w3.org/2000/svg" xmlns:xlink="http://www.w3.org/1999/xlink" x="0px" y="0px"
	 viewBox="0 0 387.6 195.8" style="enable-background:new 0 0 387.6 195.8;" xml:space="preserve">
<style type="text/css">
	.st0{fill:#9E9E9E;}
	.st1{opacity:0.5;enable-background:new    ;}
</style>
<g id="图层_2_1_">
	<g id="图层_1-2">
		<g id="A330">
			<g>
				<path class="st0" d="M387.6,195.8H275.7c-47.1,0-111.7-10.5-156.4-20.3c-46.1-9-82-24.3-109.8-46.7c-6.4-4.9-9.5-9.5-9.5-14.2
					s3-9.3,9.5-14.4c10.6-8.4,22.3-15.4,34.8-20.6c14.1-17.5,32.6-31,55-39.9C141.3,23,219,11.4,262.4,11.4h125.2v3H262.4
					c-43.2,0-120.3,11.5-162,28c-22.1,8.8-40.3,22-54.1,39.3L46.2,82l-0.4,0.1c-12.4,5.2-24,12-34.4,20.4c-5.7,4.4-8.4,8.3-8.4,12
					s2.8,7.6,8.4,11.9c27.4,22.1,62.9,37.2,108.5,46.1c44.6,9.8,108.9,20.2,155.8,20.2h111.9V195.8z"/>
			</g>
			<g>
				<rect x="37.3" y="84.1" class="st0" width="1" height="61.7"/>
			</g>
			<g>
				<rect x="111.6" y="36.6" class="st0" width="1" height="94.3"/>
			</g>
			<g>
				<path class="st0" d="M232.2,134.7c-79.7,0-143.4-3.5-194.5-10.8l0.1-1c52.3,7.4,117.9,10.9,200.3,10.7h149.4v1H238.2
					C236.2,134.7,234.2,134.7,232.2,134.7z"/>
			</g>
			<g>
				<rect x="157.3" y="24.9" class="st0" width="1" height="108.2"/>
			</g>
			<g>
				<rect x="238" y="13.8" class="st0" width="1" height="178.7"/>
			</g>
			<g>
				<path class="st0" d="M249.3,127.2c-1.9,0-3.4-1.5-3.4-3.4s1.5-3.4,3.4-3.4s3.4,1.5,3.4,3.4S251.2,127.2,249.3,127.2z
					 M249.3,121.3c-1.3,0-2.4,1.1-2.4,2.4s1.1,2.4,2.4,2.4c1.3,0,2.4-1.1,2.4-2.4S250.6,121.3,249.3,121.3z"/>
			</g>
			<g>
				<circle class="st0" cx="206.2" cy="79" r="2.9"/>
			</g>
			<g>
				<path class="st0" d="M247.2,69.9L247.2,69.9c2.2,0,4,1.8,4,4v3.4c0,2.2-1.8,4-4,4l0,0c-2.2,0-4-1.8-4-4v-3.4
					C243.2,71.7,245,69.9,247.2,69.9z"/>
			</g>
			<g>
				<path class="st0" d="M264.5,69.9L264.5,69.9c2.2,0,4,1.8,4,4v3.4c0,2.2-1.8,4-4,4l0,0c-2.2,0-4-1.8-4-4v-3.4
					C260.5,71.7,262.3,69.9,264.5,69.9z"/>
			</g>
			<g>
				<path class="st0" d="M281.8,69.9L281.8,69.9c2.2,0,4,1.8,4,4v3.4c0,2.2-1.8,4-4,4l0,0c-2.2,0-4-1.8-4-4v-3.4
					C277.8,71.7,279.6,69.9,281.8,69.9z"/>
			</g>
			<g>
				<path class="st0" d="M299.1,69.9L299.1,69.9c2.2,0,4,1.8,4,4v3.4c0,2.2-1.8,4-4,4l0,0c-2.2,0-4-1.8-4-4v-3.4
					C295.1,71.7,296.9,69.9,299.1,69.9z"/>
			</g>
			<g>
				<path class="st0" d="M316.4,69.9L316.4,69.9c2.2,0,4,1.8,4,4v3.4c0,2.2-1.8,4-4,4l0,0c-2.2,0-4-1.8-4-4v-3.4
					C312.5,71.7,314.2,69.9,316.4,69.9z"/>
			</g>
			<g>
				<path class="st0" d="M333.7,69.9L333.7,69.9c2.2,0,4,1.8,4,4v3.4c0,2.2-1.8,4-4,4l0,0c-2.2,0-4-1.8-4-4v-3.4
					C329.8,71.7,331.5,69.9,333.7,69.9z"/>
			</g>
			<g>
				<path class="st0" d="M351,69.9L351,69.9c2.2,0,4,1.8,4,4v3.4c0,2.2-1.8,4-4,4l0,0c-2.2,0-4-1.8-4-4v-3.4
					C347.1,71.7,348.8,69.9,351,69.9z"/>
			</g>
			<g>
				<path class="st0" d="M368.4,69.9L368.4,69.9c2.2,0,4,1.8,4,4v3.4c0,2.2-1.8,4-4,4l0,0c-2.2,0-4-1.8-4-4v-3.4
					C364.4,71.7,366.2,69.9,368.4,69.9z"/>
			</g>
			<g>
				<rect x="238.5" y="33.9" class="st0" width="149.1" height="1"/>
			</g>
			<g>
				<path class="st0" d="M316.7,13.9h-11.8L315.6,0h7.1L316.7,13.9z M308.9,11.9h6.4l4.3-9.9h-3L308.9,11.9z"/>
			</g>
			<g>
				<path class="st0" d="M212.3,113.4h-34.9c-2.4,0-4.3-1.9-4.3-4.3V44.4c0-2.4,1.9-4.3,4.3-4.3h34.9c2.4,0,4.3,1.9,4.3,4.3v64.8
					C216.6,111.5,214.7,113.4,212.3,113.4z M177.4,42.1c-1.3,0-2.3,1-2.3,2.3v64.8c0,1.3,1,2.3,2.3,2.3h34.9c1.3,0,2.3-1,2.3-2.3
					V44.4c0-1.3-1-2.3-2.3-2.3C212.3,42.1,177.4,42.1,177.4,42.1z"/>
			</g>
			<g class="st1">
				<path class="st0" d="M174,108.4l-4.6,1.8v3.5l3.9,3.6h43.5l3.5-3.8V110l-4.4-1.7v1.3c0,1.9-1.5,3.4-3.4,3.4h-35.1
					c-1.9,0-3.4-1.5-3.4-3.4l0,0V108.4z"/>
			</g>
			<g>
				<path class="st0" d="M89.6,65.3v13.6c0,0.6,0.5,1.1,1.1,1.1h16c0.7,0,1.3-0.6,1.3-1.3l0,0v-8.9c0-0.7-0.3-1.3-0.8-1.7l-4.1-3.5
					c-0.5-0.4-1.1-0.6-1.7-0.6H90.8C90.2,64,89.6,64.6,89.6,65.3L89.6,65.3z"/>
			</g>
			<g>
				<path class="st0" d="M62.3,78.8L71.2,67c0.3-0.3,0.2-0.8-0.1-1.1c-0.1-0.1-0.3-0.2-0.5-0.2h-8.9c-0.7,0-1.3,0.3-1.8,0.8
					L48.8,78.4c-0.3,0.3-0.3,0.8,0,1.1c0.1,0.1,0.3,0.2,0.5,0.2h11.2C61.2,79.7,61.9,79.4,62.3,78.8z"/>
			</g>
			<g class="st1">
				<circle class="st0" cx="88.8" cy="146.3" r="2.1"/>
			</g>
			<g>
				<polygon class="st0" points="86.4,149.4 80.7,149.4 80.7,148.4 86,148.4 88.5,145.9 89.2,146.6 				"/>
			</g>
			<g class="st1">
				<circle class="st0" cx="95.6" cy="155.3" r="2.1"/>
			</g>
			<g>
				<polygon class="st0" points="93.2,158.4 87.5,158.4 87.5,157.4 92.8,157.4 95.3,154.9 96,155.6 				"/>
			</g>
			<g>
				<rect x="238.5" y="91.2" class="st0" width="149.1" height="1"/>
			</g>
			<g>
				<rect x="375.6" y="12.9" class="st0" width="1" height="181.4"/>
			</g>
			<g>
				<path class="st0" d="M387.6,70.5c-0.6-0.4-1.3-0.5-2-0.5c-2.2,0-4,1.8-4,4v3.4c0,2.2,1.8,4,4,4c0.7,0,1.4-0.2,2-0.5V70.5z"/>
			</g>
			<g>
				<path class="st0" d="M86.5,78.7V64.9c0-0.5-0.4-0.8-0.8-0.8h-7.8c-0.6,0-1.1,0.3-1.4,0.7L69.3,74c-0.4,0.5-0.7,1.2-0.7,1.9v2.6
					c0,0.7,0.6,1.3,1.2,1.3L85.2,80C85.9,80,86.5,79.4,86.5,78.7L86.5,78.7z"/>
			</g>
		</g>
	</g>
</g>
</svg>
