<?xml version="1.0" encoding="utf-8"?>
<!-- Generator: Adobe Illustrator 25.3.1, SVG Export Plug-In . SVG Version: 6.00 Build 0)  -->
<svg version="1.1" id="图层_1" xmlns="http://www.w3.org/2000/svg" xmlns:xlink="http://www.w3.org/1999/xlink" x="0px" y="0px"
	 viewBox="0 0 385.5 203.3" style="enable-background:new 0 0 385.5 203.3;" xml:space="preserve">
<style type="text/css">
	.st0{fill:#9E9E9E;}
	.st1{opacity:0.5;enable-background:new    ;}
</style>
<g id="图层_2_1_">
	<g id="图层_1-2">
		<g id="A340">
			<g>
				<path class="st0" d="M269.1,203.3c-42.1,0-78.7-6.9-115.6-14.5c-60.1-12.2-104.6-27.1-139.9-47l-0.1-0.1
					c-9-6.4-13.5-12.6-13.5-19c0-6.4,4.4-12.8,13.5-19.3C24,96.3,35,90,46.5,84.8c8.2-10.2,17.9-19,28.9-26.1
					c5.1-3.2,10.5-5.9,16.2-7.9c38.2-13.6,80.1-23.7,124.5-30.1c38.5-5.9,92.3-8.5,169.6-8.2v3c-77.1-0.2-130.8,2.4-169.1,8.2
					c-44.2,6.4-85.9,16.5-123.9,30c-5.4,1.9-10.7,4.4-15.5,7.6c-10.8,7-20.3,15.7-28.4,25.8l-0.2,0.3l-0.3,0.1
					C36.9,92.7,25.8,99,15.5,106C7,111.8,3,117.3,3,122.7c0,5.4,4,10.8,12.2,16.5c35,19.7,79.1,34.5,138.9,46.6
					c36.7,7.6,73.2,14.5,115,14.5c0.6,0,1.2,0,1.8,0h114.7v3H270.8C270.3,203.3,269.7,203.3,269.1,203.3z"/>
			</g>
			<g>
				<polygon class="st0" points="92.7,68.5 106.3,68.5 112.9,74.9 112.9,86.5 92.7,86.5 				"/>
			</g>
			<g>
				<polygon class="st0" points="89.3,68.5 89.3,86.5 70.6,86.5 70.6,80.4 82.8,68.6 				"/>
			</g>
			<g>
				<path class="st0" d="M62.5,71.8h12.8L62.5,85.4l-13.2,1.1C53.3,81.3,57.7,76.4,62.5,71.8z"/>
			</g>
			<g>
				
					<ellipse transform="matrix(0.1602 -0.9871 0.9871 0.1602 84.6476 361.8914)" class="st0" cx="255" cy="131.2" rx="4.8" ry="4.8"/>
			</g>
			<g>
				<circle class="st0" cx="212.1" cy="83.3" r="2.6"/>
			</g>
			<g>
				<rect x="37.5" y="90.6" class="st0" width="1" height="61.8"/>
			</g>
			<g>
				<path class="st0" d="M385.5,142.9H172.8c-47.6,0-110.1-8.3-134.8-11.9l0.1-1c24.7,3.6,87.2,11.9,134.7,11.9h212.8L385.5,142.9
					L385.5,142.9z"/>
			</g>
			<g>
				<rect x="115.6" y="44.2" class="st0" width="1" height="95.5"/>
			</g>
			<g>
				<rect x="162.1" y="31.9" class="st0" width="1" height="110.3"/>
			</g>
			<g>
				<rect x="245.2" y="18.6" class="st0" width="1" height="182.5"/>
			</g>
			<g>
				<rect x="245.7" y="38.7" class="st0" width="139.8" height="1"/>
			</g>
			<g>
				<rect x="245.7" y="95.1" class="st0" width="139.8" height="1"/>
			</g>
			<g>
				<path class="st0" d="M310.2,15.8L321.9,0h4.5l-4.9,15.5L310.2,15.8z M322.9,2l-8.6,11.7l5.7-0.2L323.6,2H322.9z"/>
			</g>
			<g>
				<path class="st0" d="M271.1,73.7L271.1,73.7c2.3,0,4.2,1.9,4.2,4.2v3.8c0,2.3-1.9,4.2-4.2,4.2l0,0c-2.3,0-4.2-1.9-4.2-4.2v-3.8
					C266.9,75.6,268.8,73.7,271.1,73.7z"/>
			</g>
			<g>
				<path class="st0" d="M289.2,73.7L289.2,73.7c2.3,0,4.2,1.9,4.2,4.2v3.8c0,2.3-1.9,4.2-4.2,4.2l0,0c-2.3,0-4.2-1.9-4.2-4.2v-3.8
					C285,75.6,286.8,73.7,289.2,73.7z"/>
			</g>
			<g>
				<path class="st0" d="M253,86.4c-2.6,0-4.7-2.1-4.7-4.7v-3.8c0-2.6,2.1-4.7,4.7-4.7s4.7,2.1,4.7,4.7v3.8
					C257.7,84.3,255.6,86.4,253,86.4z M253,74.2c-2,0-3.7,1.7-3.7,3.7v3.8c0,2,1.7,3.7,3.7,3.7s3.7-1.7,3.7-3.7v-3.8
					C256.7,75.9,255,74.2,253,74.2z"/>
			</g>
			<g>
				<path class="st0" d="M307.2,73.7L307.2,73.7c2.3,0,4.2,1.9,4.2,4.2v3.8c0,2.3-1.9,4.2-4.2,4.2l0,0c-2.3,0-4.2-1.9-4.2-4.2v-3.8
					C303,75.6,304.9,73.7,307.2,73.7z"/>
			</g>
			<g>
				<path class="st0" d="M325.3,73.7L325.3,73.7c2.3,0,4.2,1.9,4.2,4.2v3.8c0,2.3-1.9,4.2-4.2,4.2l0,0c-2.3,0-4.2-1.9-4.2-4.2v-3.8
					C321.1,75.6,323,73.7,325.3,73.7z"/>
			</g>
			<g>
				<path class="st0" d="M343.4,73.7L343.4,73.7c2.3,0,4.2,1.9,4.2,4.2v3.8c0,2.3-1.9,4.2-4.2,4.2l0,0c-2.3,0-4.2-1.9-4.2-4.2v-3.8
					C339.2,75.6,341.1,73.7,343.4,73.7z"/>
			</g>
			<g>
				<path class="st0" d="M361.5,73.7L361.5,73.7c2.3,0,4.2,1.9,4.2,4.2v3.8c0,2.3-1.9,4.2-4.2,4.2l0,0c-2.3,0-4.2-1.9-4.2-4.2v-3.8
					C357.3,75.6,359.2,73.7,361.5,73.7z"/>
			</g>
			<g>
				<path class="st0" d="M379.6,73.7L379.6,73.7c2.3,0,4.2,1.9,4.2,4.2v3.8c0,2.3-1.9,4.2-4.2,4.2l0,0c-2.3,0-4.2-1.9-4.2-4.2v-3.8
					C375.4,75.6,377.3,73.7,379.6,73.7z"/>
			</g>
			<g class="st1">
				<circle class="st0" cx="89.3" cy="152.1" r="2"/>
			</g>
			<g class="st1">
				<circle class="st0" cx="89.3" cy="164.9" r="2"/>
			</g>
			<g>
				<rect x="84.9" y="151.6" class="st0" width="4.4" height="1"/>
			</g>
			<g>
				<rect x="84.9" y="164.4" class="st0" width="4.4" height="1"/>
			</g>
			<g>
				<path class="st0" d="M217.8,121.3h-34.2c-3,0-5.5-2.5-5.5-5.5V50.5c0-3,2.5-5.5,5.5-5.5h34.2c3,0,5.5,2.5,5.5,5.5v65.3
					C223.3,118.8,220.8,121.3,217.8,121.3z M183.6,47c-1.9,0-3.5,1.6-3.5,3.5v65.3c0,1.9,1.6,3.5,3.5,3.5h34.2
					c1.9,0,3.5-1.6,3.5-3.5V50.5c0-1.9-1.6-3.5-3.5-3.5H183.6z"/>
			</g>
			<g class="st1">
				<path class="st0" d="M179.9,114.8l-4.6,1.8v3.5l3.9,3.6h43.5l3.5-3.8v-3.4l-4.4-1.7v1.3c0,1.9-1.5,3.4-3.4,3.4h-35.1
					c-1.9,0-3.4-1.5-3.4-3.4l0,0V114.8z"/>
			</g>
		</g>
	</g>
</g>
</svg>
