<?xml version="1.0" encoding="utf-8"?>
<!-- Generator: Adobe Illustrator 25.3.1, SVG Export Plug-In . SVG Version: 6.00 Build 0)  -->
<svg version="1.1" id="图层_1" xmlns="http://www.w3.org/2000/svg" xmlns:xlink="http://www.w3.org/1999/xlink" x="0px" y="0px"
	 viewBox="0 0 386.6 198" style="enable-background:new 0 0 386.6 198;" xml:space="preserve">
<style type="text/css">
	.st0{fill:#9E9E9E;}
	.st1{opacity:0.8;enable-background:new    ;}
	.st2{opacity:0.5;enable-background:new    ;}
</style>
<g id="图层_2_1_">
	<g id="图层_1-2">
		<g id="A350">
			<g>
				<path class="st0" d="M386.5,198H224.7c-44.2,0-98.2-5.5-134-10.6c-29.6-3.9-66.8-13.8-83.2-27.3c-5-4.6-7.5-9.4-7.6-14.2
					c-0.1-5,2.4-10.2,7.5-15.3c10.5-10.5,25.5-24,45.9-41.1l30-29c17.6-15.6,39-27.7,63.7-36.1c38.4-11.6,92.2-19,164.4-22.7l75-1.6
					l0.1,3l-75,1.6c-72,3.7-125.5,11-163.6,22.5c-24.2,8.3-45.3,20.2-62.6,35.5l-30.1,29C35,108.7,20,122.1,9.6,132.6
					c-4.5,4.5-6.7,8.9-6.6,13.1c0.1,4,2.3,8.1,6.6,12c15.8,13.1,52.4,22.8,81.6,26.6c35.7,5.1,89.6,10.6,133.6,10.6h161.8V198z"/>
			</g>
			<g class="st1">
				<path class="st0" d="M80.1,65.6c6.5-2.7,11.7-2.9,21.5-2.5c10.7,1.1,16.8,6.1,16.5,16.8c-0.5,9-7.4,12.4-19,11.8
					c-5.7-0.2-11.4-1.2-16.8-2.8c-3.7-1.2-7-2.9-11.6-3.1c-4.2-0.2-9.5,1.1-14.4,2.8"/>
			</g>
			<g>
				<path class="st0" d="M99.8,69.3v16.8c0,1.8,1.5,3.3,3.3,3.3c7.9,0,13-3,13-11.2c0-6-4.8-11.5-12-12.6c-2-0.3-4,1.1-4.3,3.2
					C99.8,68.9,99.8,69.1,99.8,69.3z"/>
			</g>
			<g>
				<path class="st0" d="M92.5,66.2c0.9,0,1.7,0,2.5,0.1c1.7,0.1,2.9,1.5,2.9,3.2l-0.3,16.5c0,1.8-1.5,3.3-3.4,3.2
					c-0.2,0-0.5,0-0.7-0.1c-4.4-1.1-8.7-2.4-13-3.9c-1.5-0.6-2.3-2.3-1.7-3.9c0.1-0.2,0.2-0.4,0.3-0.6l8.4-12
					C88.6,67,90.5,66.1,92.5,66.2z"/>
			</g>
			<g>
				<path class="st0" d="M60.7,84.3c3.7-1,7.5-1.6,11.3-1.7c1.5-0.1,2.9-0.8,3.8-2l8.6-11.4c0.5-0.6,0.3-1.5-0.3-2
					c-0.2-0.2-0.5-0.3-0.8-0.3c-1.9,0-3.9,0.3-5.7,1L60.7,84.3z"/>
			</g>
			<g>
				<path class="st0" d="M125.8,44.3c0,0-0.1,0-0.1,0c-0.6,0-1.2-0.3-1.6-0.7s-0.6-1-0.6-1.6l0.2-6.8l1,0l-0.2,6.8
					c0,0.7,0.5,1.3,1.2,1.3c0.2,0,0.4,0,0.6-0.1l11-4.6c1.1-0.4,1.8-1.5,1.8-2.6v-7.5h1V36c0,1.6-0.9,3-2.4,3.6l-11,4.6
					C126.4,44.3,126.1,44.3,125.8,44.3z"/>
			</g>
			<g class="st2">
				<circle class="st0" cx="56.6" cy="125.7" r="2"/>
			</g>
			<g>
				<rect x="53.6" y="125.2" class="st0" width="2.9" height="1"/>
			</g>
			<g>
				<rect x="53.6" y="116.6" class="st0" width="2.9" height="1"/>
			</g>
			<g class="st2">
				<circle class="st0" cx="56.6" cy="138.7" r="2"/>
			</g>
			<g class="st2">
				<circle class="st0" cx="56.6" cy="148.1" r="1.6"/>
			</g>
			<g class="st2">
				<circle class="st0" cx="56.6" cy="117.1" r="1.6"/>
			</g>
			<g>
				<rect x="53.6" y="138.2" class="st0" width="2.9" height="1"/>
			</g>
			<g>
				<rect x="36.7" y="105.1" class="st0" width="1" height="68.3"/>
			</g>
			<g>
				<rect x="271.4" y="4.9" class="st0" width="1" height="191.6"/>
			</g>
			<g>
				<rect x="271.9" y="28" class="st0" width="114.7" height="1"/>
			</g>
			<g>
				<path class="st0" d="M83.1,112.1h-2.9v-1h2.9V112.1L83.1,112.1z M77.3,112.1h-2.9v-1h2.9V112.1z M71.2,111.9
					c-1.1-0.4-1.9-1.5-1.9-2.7l1,0c0,0.8,0.5,1.5,1.3,1.8L71.2,111.9z M85.9,110.2l-0.9-0.4c0.1-0.2,0.2-0.5,0.2-0.8v-1.9h1v1.9
					C86.2,109.4,86.1,109.8,85.9,110.2z M70.3,106.2h-1v-3h1V106.2z M86.2,104.1h-1v-3h1V104.1z M70.3,100.3h-1v-2
					c0-0.4,0.1-0.7,0.2-1.1l0.9,0.4c-0.1,0.2-0.1,0.5-0.1,0.7V100.3z M85.2,98.2c0-0.8-0.5-1.5-1.2-1.9l0.4-0.9
					c1.1,0.5,1.8,1.6,1.9,2.8L85.2,98.2z M72.2,96.2l0-1l0.1,0h3v1L72.2,96.2z M81.2,96.2h-3v-1h3V96.2z"/>
			</g>
			<g>
				<circle class="st0" cx="77.7" cy="103.6" r="3.1"/>
			</g>
			<g>
				<rect x="147.1" y="25.7" class="st0" width="1" height="166.8"/>
			</g>
			<g>
				<path class="st0" d="M285.5,166.4c-44.1,0-89.8-0.9-138-2.6l0-1c85.9,3.1,164.1,3.4,239,1l0,1
					C353.7,165.9,320.1,166.4,285.5,166.4z"/>
			</g>
			<g>
				<path class="st0" d="M260.9,71.7L260.9,71.7c2.7,0,4.8,2.2,4.8,4.8v5.7c0,2.7-2.2,4.8-4.8,4.8l0,0c-2.7,0-4.8-2.2-4.8-4.8v-5.7
					C256.1,73.8,258.2,71.7,260.9,71.7z"/>
			</g>
			<g>
				<path class="st0" d="M222.4,64L222.4,64c2.2,0,3.9,1.8,3.9,3.9v4c0,2.2-1.8,3.9-3.9,3.9l0,0c-2.2,0-3.9-1.8-3.9-3.9v-4
					C218.5,65.8,220.2,64,222.4,64z"/>
			</g>
			<g>
				<path class="st0" d="M281.4,71.7L281.4,71.7c2.7,0,4.8,2.2,4.8,4.8v5.7c0,2.7-2.2,4.8-4.8,4.8l0,0c-2.7,0-4.8-2.2-4.8-4.8v-5.7
					C276.6,73.8,278.8,71.7,281.4,71.7z"/>
			</g>
			<g>
				<path class="st0" d="M301.9,71.7L301.9,71.7c2.7,0,4.8,2.2,4.8,4.8v5.7c0,2.7-2.2,4.8-4.8,4.8l0,0c-2.7,0-4.8-2.2-4.8-4.8v-5.7
					C297.1,73.8,299.3,71.7,301.9,71.7z"/>
			</g>
			<g>
				<path class="st0" d="M322.4,71.7L322.4,71.7c2.7,0,4.8,2.2,4.8,4.8v5.7c0,2.7-2.2,4.8-4.8,4.8l0,0c-2.7,0-4.8-2.2-4.8-4.8v-5.7
					C317.6,73.8,319.8,71.7,322.4,71.7z"/>
			</g>
			<g>
				<path class="st0" d="M343,71.7L343,71.7c2.7,0,4.8,2.2,4.8,4.8v5.7c0,2.7-2.2,4.8-4.8,4.8l0,0c-2.7,0-4.8-2.2-4.8-4.8v-5.7
					C338.1,73.8,340.3,71.7,343,71.7z"/>
			</g>
			<g>
				<path class="st0" d="M363.5,71.7L363.5,71.7c2.7,0,4.8,2.2,4.8,4.8v5.7c0,2.7-2.2,4.8-4.8,4.8l0,0c-2.7,0-4.8-2.2-4.8-4.8v-5.7
					C358.6,73.8,360.8,71.7,363.5,71.7z"/>
			</g>
			<g>
				<path class="st0" d="M386.5,72.4c-0.8-0.5-1.7-0.8-2.6-0.8c-2.7,0-4.8,2.2-4.8,4.8v5.7c0,2.7,2.2,4.8,4.9,4.8
					c0.9,0,1.8-0.3,2.6-0.8L386.5,72.4z"/>
			</g>
			<g>
				<path class="st0" d="M229.6,113.8h-32.2c-3.2,0-5.8-2.6-5.8-5.8V46.8c0-3.2,2.6-5.8,5.8-5.8h32.2c3.2,0,5.8,2.6,5.8,5.8V108
					C235.5,111.2,232.8,113.8,229.6,113.8z M197.4,42.9c-2.1,0-3.8,1.7-3.8,3.8V108c0,2.1,1.7,3.8,3.8,3.8h32.2
					c2.1,0,3.8-1.7,3.8-3.8V46.8c0-2.1-1.7-3.8-3.8-3.8H197.4z"/>
			</g>
			<g>
				<polygon class="st0" points="189.3,42.3 188.6,41.6 193.6,36.5 233.4,36.5 238.4,41.5 237.7,42.2 233,37.5 194,37.5 				"/>
			</g>
			<g>
				<polygon class="st0" points="233.4,118.2 193.6,118.2 188.6,113.2 189.3,112.5 194,117.2 233,117.2 237.7,112.6 238.4,113.3 
									"/>
			</g>
		</g>
	</g>
</g>
</svg>
