<?xml version="1.0" encoding="utf-8"?>
<!-- Generator: Adobe Illustrator 25.3.1, SVG Export Plug-In . SVG Version: 6.00 Build 0)  -->
<svg version="1.1" id="图层_1" xmlns="http://www.w3.org/2000/svg" xmlns:xlink="http://www.w3.org/1999/xlink" x="0px" y="0px"
	 viewBox="0 0 386.4 208" style="enable-background:new 0 0 386.4 208;" xml:space="preserve">
<style type="text/css">
	.st0{fill:#9E9E9E;}
	.st1{opacity:0.5;enable-background:new    ;}
</style>
<g id="图层_2_1_">
	<g id="图层_1-2">
		<g id="A380">
			<g>
				<path class="st0" d="M386.3,200.1h-161c-27.8-0.5-62.9-1.3-88.7-3.8c-23.2-2.3-80.7-9.3-114.2-25.4l-0.1-0.1
					c-13.8-8-21.6-18.1-22.3-29.2c-0.8-12.4,6.8-25.1,22.1-36.9C37.6,94,49.1,84.5,57.4,75.9l0.1-0.1C71.9,62.6,87.8,51,104.8,41.2
					l0.1-0.1c43.4-20.6,104.6-33,163.6-33h117.8v3H268.6c-58.6,0-119.3,12.2-162.3,32.6C89.5,53.5,73.8,64.9,59.5,78
					C51,86.9,39.7,96.2,24,107.2c-14.4,11.1-21.7,23-20.9,34.3c0.7,10.1,7.8,19.3,20.8,26.8c33.1,15.8,90.1,22.8,113.1,25
					c25.6,2.5,60.7,3.3,88.4,3.8h161V200.1z"/>
			</g>
			<g>
				<rect x="113.2" y="38.8" class="st0" width="1" height="153.6"/>
			</g>
			<g>
				<rect x="27.2" y="102.7" class="st0" width="1" height="69"/>
			</g>
			<g>
				<rect x="206" y="14.1" class="st0" width="1" height="184.5"/>
			</g>
			<g>
				<rect x="339.7" y="57.8" class="st0" width="1" height="140.8"/>
			</g>
			<g>
				<rect x="206.5" y="123.3" class="st0" width="163.8" height="1"/>
			</g>
			<g>
				<path class="st0" d="M113.8,68.5l-0.2-1c30.4-7.2,61.7-10.7,92.9-10.2h179.8v1H206.5C175.3,57.9,144.1,61.3,113.8,68.5z"/>
			</g>
			<g>
				<path class="st0" d="M199.4,171.5c-28.6,0-57.4-1.8-85.8-5.3l0.1-1c29.4,3.7,59.4,5.5,89.1,5.3h183.5v1H202.8
					C201.7,171.5,200.5,171.5,199.4,171.5z"/>
			</g>
			<g>
				<path class="st0" d="M185.6,103.4L185.6,103.4c2.7,0,4.8,2.2,4.8,4.8v2.8c0,2.7-2.2,4.8-4.8,4.8h0c-2.7,0-4.8-2.2-4.8-4.8v-2.8
					C180.8,105.5,182.9,103.4,185.6,103.4z"/>
			</g>
			<g>
				<path class="st0" d="M200.4,103.4L200.4,103.4c2.7,0,4.8,2.2,4.8,4.8v2.8c0,2.7-2.2,4.8-4.8,4.8h0c-2.7,0-4.8-2.2-4.8-4.8v-2.8
					C195.6,105.5,197.8,103.4,200.4,103.4z"/>
			</g>
			<g>
				<path class="st0" d="M215.3,103.4L215.3,103.4c2.7,0,4.8,2.2,4.8,4.8v2.8c0,2.7-2.2,4.8-4.8,4.8h0c-2.7,0-4.8-2.2-4.8-4.8v-2.8
					C210.5,105.5,212.6,103.4,215.3,103.4z"/>
			</g>
			<g>
				<path class="st0" d="M230.2,103.4L230.2,103.4c2.7,0,4.8,2.2,4.8,4.8v2.8c0,2.7-2.2,4.8-4.8,4.8h0c-2.7,0-4.8-2.2-4.8-4.8v-2.8
					C225.3,105.5,227.5,103.4,230.2,103.4z"/>
			</g>
			<g>
				<path class="st0" d="M245,103.4L245,103.4c2.7,0,4.8,2.2,4.8,4.8v2.8c0,2.7-2.2,4.8-4.8,4.8h0c-2.7,0-4.8-2.2-4.8-4.8v-2.8
					C240.2,105.5,242.3,103.4,245,103.4z"/>
			</g>
			<g>
				<path class="st0" d="M259.9,103.4L259.9,103.4c2.7,0,4.8,2.2,4.8,4.8v2.8c0,2.7-2.2,4.8-4.8,4.8l0,0c-2.7,0-4.8-2.2-4.8-4.8
					v-2.8C255.1,105.5,257.2,103.4,259.9,103.4z"/>
			</g>
			<g>
				<path class="st0" d="M274.7,103.4L274.7,103.4c2.7,0,4.8,2.2,4.8,4.8v2.8c0,2.7-2.2,4.8-4.8,4.8l0,0c-2.7,0-4.8-2.2-4.8-4.8
					v-2.8C269.9,105.5,272.1,103.4,274.7,103.4z"/>
			</g>
			<g>
				<path class="st0" d="M289.6,103.4L289.6,103.4c2.7,0,4.8,2.2,4.8,4.8v2.8c0,2.7-2.2,4.8-4.8,4.8l0,0c-2.7,0-4.8-2.2-4.8-4.8
					v-2.8C284.8,105.5,286.9,103.4,289.6,103.4z"/>
			</g>
			<g>
				<path class="st0" d="M304.5,103.4L304.5,103.4c2.7,0,4.8,2.2,4.8,4.8v2.8c0,2.7-2.2,4.8-4.8,4.8l0,0c-2.7,0-4.8-2.2-4.8-4.8
					v-2.8C299.6,105.5,301.8,103.4,304.5,103.4z"/>
			</g>
			<g>
				<path class="st0" d="M309.3,39.3L309.3,39.3c2.7,0,4.8,2.2,4.8,4.8V47c0,2.7-2.2,4.8-4.8,4.8l0,0c-2.7,0-4.8-2.2-4.8-4.8v-2.8
					C304.5,41.5,306.6,39.3,309.3,39.3z"/>
			</g>
			<g>
				<path class="st0" d="M323.9,39.3L323.9,39.3c2.7,0,4.8,2.2,4.8,4.8V47c0,2.7-2.2,4.8-4.8,4.8l0,0c-2.7,0-4.8-2.2-4.8-4.8v-2.8
					C319.1,41.5,321.3,39.3,323.9,39.3z"/>
			</g>
			<g>
				<path class="st0" d="M338.6,39.3L338.6,39.3c2.7,0,4.8,2.2,4.8,4.8V47c0,2.7-2.2,4.8-4.8,4.8l0,0c-2.7,0-4.8-2.2-4.8-4.8v-2.8
					C333.8,41.5,335.9,39.3,338.6,39.3z"/>
			</g>
			<g>
				<path class="st0" d="M353.2,39.3L353.2,39.3c2.7,0,4.8,2.2,4.8,4.8V47c0,2.7-2.2,4.8-4.8,4.8l0,0c-2.7,0-4.8-2.2-4.8-4.8v-2.8
					C348.4,41.5,350.6,39.3,353.2,39.3z"/>
			</g>
			<g>
				<path class="st0" d="M367.9,39.3L367.9,39.3c2.7,0,4.8,2.2,4.8,4.8V47c0,2.7-2.2,4.8-4.8,4.8l0,0c-2.7,0-4.8-2.2-4.8-4.8v-2.8
					C363.1,41.5,365.2,39.3,367.9,39.3z"/>
			</g>
			<g>
				<path class="st0" d="M319.3,103.4L319.3,103.4c2.7,0,4.8,2.2,4.8,4.8v2.8c0,2.7-2.2,4.8-4.8,4.8l0,0c-2.7,0-4.8-2.2-4.8-4.8
					v-2.8C314.5,105.5,316.6,103.4,319.3,103.4z"/>
			</g>
			<g>
				<path class="st0" d="M334.2,103.4L334.2,103.4c2.7,0,4.8,2.2,4.8,4.8v2.8c0,2.7-2.2,4.8-4.8,4.8l0,0c-2.7,0-4.8-2.2-4.8-4.8
					v-2.8C329.4,105.5,331.5,103.4,334.2,103.4z"/>
			</g>
			<g>
				<path class="st0" d="M349,103.4L349,103.4c2.7,0,4.8,2.2,4.8,4.8v2.8c0,2.7-2.2,4.8-4.8,4.8l0,0c-2.7,0-4.8-2.2-4.8-4.8v-2.8
					C344.2,105.5,346.4,103.4,349,103.4z"/>
			</g>
			<g>
				<path class="st0" d="M80.7,186.7l-1-0.2l0.7-4.4c0.1-0.5-0.3-1-0.8-1.2c-14.5-2.8-28.9-6.8-42.8-11.9c-0.3-0.1-0.6,0-0.7,0.3
					l-2.4,4.7l-0.9-0.5l2.5-4.8c0.4-0.7,1.2-1,1.9-0.7c13.8,5.1,28.1,9.1,42.6,11.9c1.1,0.2,1.8,1.2,1.6,2.3L80.7,186.7z"/>
			</g>
			<g>
				<path class="st0" d="M2.4,135.2l-0.8-0.7c5.9-6.8,12.8-12.6,20.5-17.2l0.5,0.9C15,122.8,8.2,128.5,2.4,135.2z"/>
			</g>
			<g>
				<path class="st0" d="M23.1,156.5c-7.7-2.2-14.8-5.7-21.2-10.4l0.6-0.8c6.3,4.7,13.4,8.1,20.9,10.3L23.1,156.5z"/>
			</g>
			<g>
				
					<rect x="5.1" y="137.6" transform="matrix(0.9951 -9.853771e-02 9.853771e-02 0.9951 -13.5364 2.0737)" class="st0" width="18.2" height="1"/>
			</g>
			<g>
				<path class="st0" d="M353.9,10.2h-6.1l8-10.2h3.1L353.9,10.2z M349.8,9.2h3.4l4-8.2h-1L349.8,9.2z"/>
			</g>
			<g>
				<path class="st0" d="M375.2,208h-5.9l-8.1-9.9h8.4L375.2,208z M369.8,207h3.7l-4.5-7.9h-5.7L369.8,207z"/>
			</g>
			<g>
				<rect x="77.4" y="106.9" class="st0" width="4.8" height="1"/>
			</g>
			<g class="st1">
				<circle class="st0" cx="82.1" cy="127" r="2.1"/>
			</g>
			<g class="st1">
				<circle class="st0" cx="82.1" cy="107.4" r="2.2"/>
			</g>
			<g class="st1">
				<circle class="st0" cx="82.1" cy="139" r="2.1"/>
			</g>
			<g>
				<rect x="77.4" y="126.5" class="st0" width="4.8" height="1"/>
			</g>
			<g>
				<rect x="77.4" y="138.5" class="st0" width="4.8" height="1"/>
			</g>
			<g>
				<path class="st0" d="M51.8,137.7h-9.8v-9.8h9.8V137.7z M43.1,136.7h7.8v-7.8h-7.8V136.7z"/>
			</g>
			<g>
				<circle class="st0" cx="47" cy="132.8" r="2.3"/>
			</g>
			<g>
				<path class="st0" d="M159.7,133.8h-16.1c-3.4,0-6.2-2.8-6.2-6.2V96.9c0-3.4,2.8-6.2,6.2-6.2h16.1c3.4,0,6.2,2.8,6.2,6.2v30.7
					C165.9,131,163.1,133.8,159.7,133.8z M143.6,92.7c-2.3,0-4.2,1.9-4.2,4.2v30.7c0,2.3,1.9,4.2,4.2,4.2h16.1
					c2.3,0,4.2-1.9,4.2-4.2V96.9c0-2.3-1.9-4.2-4.2-4.2H143.6z"/>
			</g>
			<g>
				<path class="st0" d="M386.4,133.8h-10.9c-3.4,0-6.2-2.8-6.2-6.2V96.9c0-3.4,2.8-6.2,6.2-6.2h10.9v2h-10.9
					c-2.3,0-4.2,1.9-4.2,4.2v30.7c0,2.3,1.9,4.2,4.2,4.2h10.9V133.8z"/>
			</g>
			<g>
				<circle class="st0" cx="158.6" cy="106.8" r="2.1"/>
			</g>
			<g>
				
					<rect x="135.2" y="85.9" transform="matrix(0.9938 -0.1113 0.1113 0.9938 -8.6722 17.3432)" class="st0" width="31.7" height="1"/>
			</g>
			<g>
				
					<rect x="366.3" y="79.1" transform="matrix(0.9922 -0.125 0.125 0.9922 -7.0012 47.6668)" class="st0" width="20.2" height="1"/>
			</g>
			<g>
				<path class="st0" d="M221.2,186.8h-12.1v-8.2h12.1V186.8z M210.1,185.8h10.1v-6.2h-10.1V185.8z"/>
			</g>
			<g>
				<path class="st0" d="M212.2,180.5h5.8c0.5,0,0.9,0.4,0.9,0.9v0c0,0.5-0.4,0.9-0.9,0.9h-5.8c-0.5,0-0.9-0.4-0.9-0.9v0
					C211.3,180.9,211.7,180.5,212.2,180.5z"/>
			</g>
			<g>
				<path class="st0" d="M213.6,183h3.1c0.5,0,0.9,0.4,0.9,0.9l0,0c0,0.5-0.4,0.9-0.9,0.9h-3.1c-0.5,0-0.9-0.4-0.9-0.9l0,0
					C212.7,183.4,213.1,183,213.6,183z"/>
			</g>
			<g>
				<path class="st0" d="M72.4,97l9.2-0.7c0.7,0,1.3-0.7,1.3-1.4c0-0.2-0.1-0.4-0.2-0.6l-5.5-10.5c-0.3-0.6-0.9-1-1.6-1h-3.5
					c-0.8,0-1.4,0.6-1.4,1.4c0,0,0,0,0,0v11.3c0,0.8,0.7,1.5,1.5,1.6C72.4,97,72.4,97,72.4,97z"/>
			</g>
			<g>
				<path class="st0" d="M65.1,97l-7.2-2.5c-0.5-0.2-0.8-0.6-0.9-1.1v-3.2c0-0.5,0.2-1,0.5-1.3l4.5-5c0.5-0.6,1.3-0.9,2.1-0.9h3.6
					c0.6,0,1,0.4,1,1v10.6c0,1.5-1.3,2.7-2.8,2.7C65.6,97.1,65.3,97.1,65.1,97z"/>
			</g>
			<g>
				<path class="st0" d="M40.6,92.9l9.7-0.6c0.9-0.1,1.8-0.5,2.5-1.2l6-6c0.4-0.4,0.3-1,0-1.3c-0.2-0.2-0.4-0.3-0.6-0.3h-6.5
					L40.6,92.9z"/>
			</g>
			<g>
				<path class="st0" d="M386.3,41.1c-1.6-2.1-4.7-2.4-6.7-0.8c-1.2,0.9-1.8,2.3-1.8,3.8V47c0,2.7,2.1,4.8,4.8,4.8
					c1.5,0,2.9-0.7,3.8-1.8V41.1z"/>
			</g>
		</g>
	</g>
</g>
</svg>
