<?xml version="1.0" encoding="utf-8"?>
<!-- Generator: Adobe Illustrator 25.3.1, SVG Export Plug-In . SVG Version: 6.00 Build 0)  -->
<svg version="1.1" id="图层_1" xmlns="http://www.w3.org/2000/svg" xmlns:xlink="http://www.w3.org/1999/xlink" x="0px" y="0px"
	 viewBox="0 0 388 203.6" style="enable-background:new 0 0 388 203.6;" xml:space="preserve">
<style type="text/css">
	.st0{fill:#9E9E9E;}
	.st1{opacity:0.5;enable-background:new    ;}
</style>
<g id="图层_2_1_">
	<g id="图层_1-2">
		<g id="B737">
			<g>
				<path class="st0" d="M388,187.8H270.2c-29.5,0-57.9-1.3-95.1-4.5c-53-4.9-105.2-19.8-155.3-44C4.2,131,0.4,122.4,0,116.6
					c-0.5-6.5,3.1-12.8,10-17.9c17.1-11.3,37.3-21.5,62-31.4c0.8-0.9,1.6-1.8,2.3-2.7c0.7-0.8,1.4-1.6,2.1-2.4
					c8.2-9.2,18.1-16.6,29.2-21.9c17.6-8.4,36.1-14.6,58.3-21.5C219.2,4.2,261.3-0.9,388,0.1v3c-126.4-1-168.3,4-223.1,18.6
					c-22.1,6.8-40.4,13-57.9,21.3c-10.8,5.1-20.3,12.2-28.3,21.1c-0.7,0.8-1.4,1.6-2.1,2.4c-0.9,1-1.7,2-2.6,3l-0.2,0.3L73.4,70
					c-24.6,9.8-44.8,20-61.7,31.2c-6.1,4.4-9.1,9.7-8.7,15.2c0.5,7.1,7,14.3,18.2,20.2c49.7,24.1,101.6,38.8,154.2,43.7
					c37,3.1,65.4,4.5,94.8,4.5H388V187.8z"/>
			</g>
			<g>
				<path class="st0" d="M127.5,55.4l-7.3,21.5c-0.1,0.3,0.1,0.6,0.4,0.7c0.1,0,0.3,0,0.4,0l23-9.3c0.2-0.1,0.4-0.3,0.4-0.5V55.6
					c0-0.3-0.3-0.6-0.6-0.6h-15.7C127.8,55,127.6,55.2,127.5,55.4z"/>
			</g>
			<g>
				<path class="st0" d="M108.7,55.3l-11,15.2c-0.2,0.3-0.1,0.6,0.1,0.8l0.1,0.1l18.5,6.5c0.3,0.1,0.6-0.1,0.8-0.4l7.7-21.7
					c0.1-0.3,0-0.6-0.4-0.8c-0.1,0-0.1,0-0.2,0h-15.2C109,55,108.8,55.1,108.7,55.3z"/>
			</g>
			<g>
				<path class="st0" d="M95.6,69.6l9.5-13.8c0.2-0.2,0.1-0.5-0.1-0.7c-0.1-0.1-0.2-0.1-0.3-0.1H85.6c-0.1,0-0.3,0.1-0.4,0.2
					L72.1,69.4c-0.2,0.2-0.2,0.5,0,0.7c0.1,0.1,0.2,0.1,0.3,0.1h21.9C94.8,70.2,95.3,70,95.6,69.6z"/>
			</g>
			<g>
				<rect x="148" y="25" class="st0" width="1" height="153"/>
			</g>
			<g>
				<rect x="257.1" y="5" class="st0" width="1" height="181.3"/>
			</g>
			<g>
				<rect x="58.7" y="74.3" class="st0" width="1" height="80.3"/>
			</g>
			<g>
				<rect x="16.4" y="96.1" class="st0" width="1" height="39.8"/>
			</g>
			<g>
				
					<rect x="37.5" y="106.6" transform="matrix(9.994525e-02 -0.995 0.995 9.994525e-02 -92.9361 152.8984)" class="st0" width="1" height="42.5"/>
			</g>
			<g>
				
					<rect x="37.6" y="82.5" transform="matrix(6.203604e-02 -0.9981 0.9981 6.203604e-02 -67.8265 135.3065)" class="st0" width="1" height="42.4"/>
			</g>
			<g>
				<path class="st0" d="M198.6,133.7c-46.5-1.2-93.4-5.2-139.5-12l0.1-1c46,6.8,92.9,10.8,139.4,12V133.7z"/>
			</g>
			<g>
				<path class="st0" d="M388,168.3L257.6,168c-85,0.3-140.7-7.1-198.6-26.3l0.3-0.9c57.8,19.2,113.4,26.5,198.3,26.2l130.4,0.3
					V168.3z"/>
			</g>
			<g>
				<rect x="257.6" y="137.2" class="st0" width="130.4" height="1"/>
			</g>
			<g>
				<rect x="257.6" y="48.5" class="st0" width="130.4" height="1"/>
			</g>
			<g>
				<rect x="257.6" y="87" class="st0" width="130.4" height="1"/>
			</g>
			<g>
				<path class="st0" d="M148.7,31.8l-0.3-1C177.8,21.5,212,15,250,11.5c4.7-0.4,9.4-0.7,14-0.7h124v1H264c-4.6,0-9.3,0.2-14,0.6
					C212.1,16,178,22.5,148.7,31.8z"/>
			</g>
			<g>
				<polygon class="st0" points="106,84.5 59.2,84.5 59.2,83.5 105.3,83.5 109.1,75.2 110,75.6 				"/>
			</g>
			<g>
				<path class="st0" d="M290.6,60.5h4.2c1.9,0,3.4,1.5,3.4,3.4v9.3c0,1.9-1.5,3.4-3.4,3.4h-4.2c-1.9,0-3.4-1.5-3.4-3.4V64
					C287.2,62.1,288.7,60.5,290.6,60.5z"/>
			</g>
			<g>
				<path class="st0" d="M312.4,60.5h4.2c1.9,0,3.4,1.5,3.4,3.4v9.3c0,1.9-1.5,3.4-3.4,3.4h-4.2c-1.9,0-3.4-1.5-3.4-3.4V64
					C309,62.1,310.5,60.5,312.4,60.5z"/>
			</g>
			<g>
				<path class="st0" d="M334.2,60.5h4.2c1.9,0,3.4,1.5,3.4,3.4v9.3c0,1.9-1.5,3.4-3.4,3.4h-4.2c-1.9,0-3.4-1.5-3.4-3.4V64
					C330.8,62.1,332.4,60.5,334.2,60.5z"/>
			</g>
			<g>
				<path class="st0" d="M356.1,60.5h4.2c1.9,0,3.4,1.5,3.4,3.4v9.3c0,1.9-1.5,3.4-3.4,3.4h-4.2c-1.9,0-3.4-1.5-3.4-3.4V64
					C352.7,62.1,354.2,60.5,356.1,60.5z"/>
			</g>
			<g>
				<path class="st0" d="M377.9,60.5h4.2c1.9,0,3.4,1.5,3.4,3.4v9.3c0,1.9-1.5,3.4-3.4,3.4h-4.2c-1.9,0-3.4-1.5-3.4-3.4V64
					C374.5,62.1,376,60.5,377.9,60.5z"/>
			</g>
			<g>
				<path class="st0" d="M237.3,112h-24.5c-4,0-7.3-3.3-7.3-7.3V31.3c0-4,3.3-7.3,7.3-7.3h24.5c4,0,7.3,3.3,7.3,7.3v73.4
					C244.6,108.7,241.3,112,237.3,112z M212.9,26c-2.9,0-5.3,2.4-5.3,5.3v73.4c0,2.9,2.4,5.3,5.3,5.3h24.5c2.9,0,5.3-2.4,5.3-5.3
					V31.3c0-2.9-2.4-5.3-5.3-5.3H212.9z"/>
			</g>
			<g>
				<circle class="st0" cx="225.7" cy="53.6" r="3.6"/>
			</g>
			<g>
				<path class="st0" d="M319.8,110.7h-2.4c-1.9,0-3.5-1.6-3.5-3.5v-5.4c0-1.9,1.6-3.5,3.5-3.5h2.4c1.9,0,3.5,1.6,3.5,3.5v5.4
					C323.3,109.1,321.7,110.7,319.8,110.7z M317.5,99.4c-1.4,0-2.5,1.1-2.5,2.5v5.4c0,1.4,1.1,2.5,2.5,2.5h2.4
					c1.4,0,2.5-1.1,2.5-2.5v-5.4c0-1.4-1.1-2.5-2.5-2.5H317.5z"/>
			</g>
			<g>
				<path class="st0" d="M248.3,143.3h-46.2c-2.2,0-3.9-1.8-3.9-3.9V126c0-2.2,1.8-3.9,3.9-3.9h46.2c2.2,0,3.9,1.8,3.9,3.9v13.4
					C252.2,141.5,250.5,143.3,248.3,143.3z M202.1,123c-1.6,0-2.9,1.3-2.9,2.9v13.4c0,1.6,1.3,2.9,2.9,2.9h46.2
					c1.6,0,2.9-1.3,2.9-2.9v-13.4c0-1.6-1.3-2.9-2.9-2.9H202.1z"/>
			</g>
			<g>
				<path class="st0" d="M258.1,150.2h-6.9v-30.5h6.9V150.2z M252.2,149.2h4.9v-28.5h-4.9L252.2,149.2L252.2,149.2z"/>
			</g>
			<g>
				<path class="st0" d="M148.6,60.2l-0.2-1c15.7-3.9,31.8-6.2,48-6.8v1C180.3,54,164.2,56.3,148.6,60.2z"/>
			</g>
			<g>
				<path class="st0" d="M207.1,96.2h-6.6c-2.5,0-4.6-2.1-4.6-4.6V37.1c0-1.8,1.5-3.3,3.3-3.3h7.9L207.1,96.2L207.1,96.2z
					 M199.2,34.8c-1.3,0-2.3,1-2.3,2.3v54.5c0,2,1.6,3.6,3.6,3.6h5.6V34.8H199.2z"/>
			</g>
			<g>
				<path class="st0" d="M219.4,62.6H232c1.7,0,3,1.3,3,3l0,0c0,1.7-1.3,3-3,3h-12.6c-1.7,0-3-1.3-3-3l0,0
					C216.4,64,217.8,62.6,219.4,62.6z"/>
			</g>
			<g>
				<path class="st0" d="M216.9,55.5h-21v-3.1h21V55.5z M196.9,54.5h19v-1.1h-19V54.5z"/>
			</g>
			<g>
				<path class="st0" d="M216.9,82.4h-21v-3.1h21V82.4z M196.9,81.4h19v-1.1h-19V81.4z"/>
			</g>
			<g>
				<path class="st0" d="M74.2,118.7c-1.5,0-2.7-1.2-2.7-2.7s1.2-2.7,2.7-2.7s2.7,1.2,2.7,2.7S75.7,118.7,74.2,118.7z M74.2,114.3
					c-0.9,0-1.7,0.8-1.7,1.7c0,0.9,0.8,1.7,1.7,1.7c0.9,0,1.7-0.8,1.7-1.7C76,115,75.2,114.3,74.2,114.3z"/>
			</g>
			<g class="st1">
				<circle class="st0" cx="77.2" cy="87.5" r="2.2"/>
			</g>
			<g>
				<polygon class="st0" points="70.9,92.2 70.7,91.2 76.7,89.9 76.7,87.5 77.7,87.5 77.7,90.7 				"/>
			</g>
			<g>
				<polygon class="st0" points="388,203.6 386.1,203.6 375,186.8 376.7,185.7 387.2,201.6 388,201.6 				"/>
			</g>
			<g class="st1">
				<path class="st0" d="M206.4,106.5l-4.6,1.8v3.5l3.9,3.6h38.9l3.5-3.8v-3.4l-4.4-1.7v1.3c-2.2,0.4-2.6,2.7-3.4,3.4h-30.5
					c-0.5-1.1-1.6-2.9-3.4-3.4V106.5z"/>
			</g>
		</g>
	</g>
</g>
</svg>
