<?xml version="1.0" encoding="utf-8"?>
<!-- Generator: Adobe Illustrator 25.3.1, SVG Export Plug-In . SVG Version: 6.00 Build 0)  -->
<svg version="1.1" id="图层_1" xmlns="http://www.w3.org/2000/svg" xmlns:xlink="http://www.w3.org/1999/xlink" x="0px" y="0px"
	 viewBox="0 0 383.8 194.1" style="enable-background:new 0 0 383.8 194.1;" xml:space="preserve">
<style type="text/css">
	.st0{fill:#9E9E9E;}
	.st1{opacity:0.5;enable-background:new    ;}
</style>
<g id="图层_2_1_">
	<g id="图层_1-2">
		<g id="_747">
			<g>
				<path class="st0" d="M383.8,194.1h-2.6c-30.8-0.3-62.6-0.5-80.5-1.2c-31.9-1.6-53.4-3.7-80.6-6.3l-4.6-0.4
					c-43.1-5-76.8-10.6-106.1-17.8C74,159.8,44.5,148.8,19,134.8C6.6,127.3,0.2,119.3,0,111c-0.2-8.5,6.1-17.3,18.9-26.1
					c18.1-11.5,37-22.1,56.2-31.5c18.1-8.7,30.9-16.7,40.2-25.2c13.7-12,33.3-19.6,55.1-21.3C212.2,4,296.9,3.1,378.7,2.3l5-0.1v3
					l-5,0.1c-81.8,0.8-166.4,1.7-208,4.6c-21.2,1.7-40.1,9-53.3,20.7c-9.5,8.7-22.6,16.9-40.9,25.7c-19.1,9.4-37.9,19.9-55.8,31.3
					C8.7,95.7,2.8,103.6,3,111c0.2,7.1,6.1,14.3,17.5,21.2c57.7,31.7,131.1,43.6,195.3,51l4.6,0.4c27.2,2.6,48.6,4.6,80.4,6.2
					c17.8,0.6,49.6,0.9,80.4,1.2h2.6L383.8,194.1z"/>
			</g>
			<g>
				<rect x="21" y="85.1" class="st0" width="1" height="49.4"/>
			</g>
			<g>
				<rect x="21.5" y="91.8" class="st0" width="163.4" height="1"/>
			</g>
			<g>
				<rect x="21.5" y="112.6" class="st0" width="163.4" height="1"/>
			</g>
			<g>
				<rect x="74" y="55.4" class="st0" width="1" height="36.9"/>
			</g>
			<g>
				<rect x="74" y="113.1" class="st0" width="1" height="43.9"/>
			</g>
			<g>
				<rect x="74.5" y="62" class="st0" width="183.8" height="1"/>
			</g>
			<g>
				<rect x="154.1" y="10.8" class="st0" width="1" height="51.8"/>
			</g>
			<g>
				<rect x="184.4" y="62.5" class="st0" width="1" height="118.3"/>
			</g>
			<g>
				<path class="st0" d="M356,166.8c-69.1,0-124.8-2.2-173.7-7c-66.6-6.4-119.2-17.4-160.9-33.6l0.4-0.9
					c96.8,37.6,244.3,41.3,362,40.4v1C374.3,166.7,365,166.8,356,166.8z"/>
			</g>
			<g>
				<rect x="257.8" y="5.4" class="st0" width="1" height="183.2"/>
			</g>
			<g>
				<rect x="258.3" y="112.6" class="st0" width="125.4" height="1"/>
			</g>
			<g>
				<rect x="258.3" y="91.8" class="st0" width="125.4" height="1"/>
			</g>
			<g>
				<rect x="258.3" y="57" class="st0" width="89.9" height="1"/>
			</g>
			<g>
				<rect x="377.4" y="57" class="st0" width="6.4" height="1"/>
			</g>
			<g>
				<path class="st0" d="M31.3,96h0.1c2.1,0,3.8,1.7,3.8,3.8v4.2c0,2.1-1.7,3.8-3.8,3.8h-0.1c-2.1,0-3.8-1.7-3.8-3.8v-4.2
					C27.5,97.7,29.2,96,31.3,96z"/>
			</g>
			<g>
				<path class="st0" d="M43.6,96L43.6,96c2.2,0,3.9,1.7,3.9,3.8v4.2c0,2.1-1.7,3.8-3.8,3.8h-0.1c-2.1,0-3.8-1.7-3.8-3.8v-4.2
					C39.8,97.7,41.5,96,43.6,96z"/>
			</g>
			<g>
				<path class="st0" d="M55.9,96L55.9,96c2.2,0,3.9,1.7,3.9,3.8v4.2c0,2.1-1.7,3.8-3.8,3.8h-0.1c-2.1,0-3.8-1.7-3.8-3.8v-4.2
					C52,97.7,53.7,96,55.9,96z"/>
			</g>
			<g>
				<path class="st0" d="M68.1,96L68.1,96c2.2,0,3.9,1.7,3.9,3.8v4.2c0,2.1-1.7,3.8-3.8,3.8h-0.1c-2.1,0-3.8-1.7-3.8-3.8v-4.2
					C64.3,97.7,66,96,68.1,96z"/>
			</g>
			<g>
				<path class="st0" d="M80.4,96L80.4,96c2.2,0,3.9,1.7,3.9,3.8v4.2c0,2.1-1.7,3.8-3.8,3.8h-0.1c-2.1,0-3.8-1.7-3.8-3.8v-4.2
					C76.6,97.7,78.3,96,80.4,96z"/>
			</g>
			<g>
				<path class="st0" d="M92.7,96L92.7,96c2.2,0,3.9,1.7,3.9,3.8v4.2c0,2.1-1.7,3.8-3.8,3.8h-0.1c-2.1,0-3.8-1.7-3.8-3.8v-4.2
					C88.8,97.7,90.5,96,92.7,96z"/>
			</g>
			<g>
				<path class="st0" d="M104.9,96L104.9,96c2.2,0,3.9,1.7,3.9,3.8v4.2c0,2.1-1.7,3.8-3.8,3.8h-0.1c-2.1,0-3.8-1.7-3.8-3.8v-4.2
					C101.1,97.7,102.8,96,104.9,96z"/>
			</g>
			<g>
				<path class="st0" d="M117.2,96L117.2,96c2.2,0,3.9,1.7,3.9,3.8v4.2c0,2.1-1.7,3.8-3.8,3.8h-0.1c-2.1,0-3.8-1.7-3.8-3.8v-4.2
					C113.4,97.7,115.1,96,117.2,96z"/>
			</g>
			<g>
				<path class="st0" d="M129.5,96h0.1c2.1,0,3.8,1.7,3.8,3.8v4.2c0,2.1-1.7,3.8-3.8,3.8h-0.1c-2.1,0-3.8-1.7-3.8-3.8v-4.2
					C125.6,97.7,127.4,96,129.5,96z"/>
			</g>
			<g>
				<path class="st0" d="M141.8,96h0.1c2.1,0,3.8,1.7,3.8,3.8v4.2c0,2.1-1.7,3.8-3.8,3.8h-0.1c-2.1,0-3.8-1.7-3.8-3.8v-4.2
					C137.9,97.7,139.6,96,141.8,96z"/>
			</g>
			<g>
				<path class="st0" d="M154,96h0.1c2.1,0,3.8,1.7,3.8,3.8v4.2c0,2.1-1.7,3.8-3.8,3.8H154c-2.1,0-3.8-1.7-3.8-3.8v-4.2
					C150.2,97.7,151.9,96,154,96z"/>
			</g>
			<g>
				<path class="st0" d="M166.3,96h0.1c2.1,0,3.8,1.7,3.8,3.8v4.2c0,2.1-1.7,3.8-3.8,3.8h-0.1c-2.1,0-3.8-1.7-3.8-3.8v-4.2
					C162.4,97.7,164.2,96,166.3,96z"/>
			</g>
			<g>
				<path class="st0" d="M178.6,96h0.1c2.1,0,3.8,1.7,3.8,3.8v4.2c0,2.1-1.7,3.8-3.8,3.8h-0.1c-2.1,0-3.8-1.7-3.8-3.8v-4.2
					C174.7,97.7,176.4,96,178.6,96z"/>
			</g>
			<g>
				<path class="st0" d="M190.8,96h0.1c2.1,0,3.8,1.7,3.8,3.8v4.2c0,2.1-1.7,3.8-3.8,3.8h-0.1c-2.1,0-3.8-1.7-3.8-3.8v-4.2
					C187,97.7,188.7,96,190.8,96z"/>
			</g>
			<g>
				<path class="st0" d="M252.8,96h0.1c2.1,0,3.8,1.7,3.8,3.8v4.2c0,2.1-1.7,3.8-3.8,3.8h-0.1c-2.1,0-3.8-1.7-3.8-3.8v-4.2
					C248.9,97.7,250.7,96,252.8,96z"/>
			</g>
			<g>
				<path class="st0" d="M234.1,96h0.1c2.1,0,3.8,1.7,3.8,3.8v4.2c0,2.1-1.7,3.8-3.8,3.8h-0.1c-2.1,0-3.8-1.7-3.8-3.8v-4.2
					C230.2,97.7,232,96,234.1,96z"/>
			</g>
			<g>
				<path class="st0" d="M265,96h0.1c2.1,0,3.8,1.7,3.8,3.8v4.2c0,2.1-1.7,3.8-3.8,3.8H265c-2.1,0-3.8-1.7-3.8-3.8v-4.2
					C261.2,97.7,262.9,96,265,96z"/>
			</g>
			<g>
				<path class="st0" d="M277.3,96h0.1c2.1,0,3.8,1.7,3.8,3.8v4.2c0,2.1-1.7,3.8-3.8,3.8h-0.1c-2.1,0-3.8-1.7-3.8-3.8v-4.2
					C273.5,97.7,275.2,96,277.3,96z"/>
			</g>
			<g>
				<path class="st0" d="M289.6,96h0.1c2.1,0,3.8,1.7,3.8,3.8v4.2c0,2.1-1.7,3.8-3.8,3.8h-0.1c-2.1,0-3.8-1.7-3.8-3.8v-4.2
					C285.8,97.7,287.5,96,289.6,96z"/>
			</g>
			<g>
				<path class="st0" d="M301.9,96h0.1c2.1,0,3.8,1.7,3.8,3.8v4.2c0,2.1-1.7,3.8-3.8,3.8h-0.1c-2.1,0-3.8-1.7-3.8-3.8v-4.2
					C298,97.7,299.7,96,301.9,96z"/>
			</g>
			<g>
				<path class="st0" d="M314.1,96h0.1c2.1,0,3.8,1.7,3.8,3.8v4.2c0,2.1-1.7,3.8-3.8,3.8h-0.1c-2.1,0-3.8-1.7-3.8-3.8v-4.2
					C310.3,97.7,312,96,314.1,96z"/>
			</g>
			<g>
				<path class="st0" d="M326.4,96h0.1c2.1,0,3.8,1.7,3.8,3.8v4.2c0,2.1-1.7,3.8-3.8,3.8h-0.1c-2.1,0-3.8-1.7-3.8-3.8v-4.2
					C322.6,97.7,324.3,96,326.4,96z"/>
			</g>
			<g>
				<path class="st0" d="M338.7,96h0.1c2.1,0,3.8,1.7,3.8,3.8v4.2c0,2.1-1.7,3.8-3.8,3.8h-0.1c-2.1,0-3.8-1.7-3.8-3.8v-4.2
					C334.8,97.7,336.5,96,338.7,96z"/>
			</g>
			<g>
				<path class="st0" d="M350.9,96h0.1c2.1,0,3.8,1.7,3.8,3.8v4.2c0,2.1-1.7,3.8-3.8,3.8h-0.1c-2.1,0-3.8-1.7-3.8-3.8v-4.2
					C347.1,97.7,348.8,96,350.9,96z"/>
			</g>
			<g>
				<path class="st0" d="M363.2,96h0.1c2.1,0,3.8,1.7,3.8,3.8v4.2c0,2.1-1.7,3.8-3.8,3.8h-0.1c-2.1,0-3.8-1.7-3.8-3.8v-4.2
					C359.4,97.7,361.1,96,363.2,96z"/>
			</g>
			<g>
				<path class="st0" d="M375.5,96h0.1c2.1,0,3.8,1.7,3.8,3.8v4.2c0,2.1-1.7,3.8-3.8,3.8h-0.1c-2.1,0-3.8-1.7-3.8-3.8v-4.2
					C371.6,97.7,373.4,96,375.5,96z"/>
			</g>
			<g>
				<path class="st0" d="M227.8,34.1h0.1c2.1,0,3.8,1.7,3.8,3.8v4.2c0,2.1-1.7,3.8-3.8,3.8h-0.1c-2.1,0-3.8-1.7-3.8-3.8v-4.2
					C223.9,35.8,225.7,34.1,227.8,34.1z"/>
			</g>
			<g>
				<path class="st0" d="M240.1,34.1h0.1c2.1,0,3.8,1.7,3.8,3.8v4.2c0,2.1-1.7,3.8-3.8,3.8h-0.1c-2.1,0-3.8-1.7-3.8-3.8v-4.2
					C236.2,35.8,237.9,34.1,240.1,34.1z"/>
			</g>
			<g>
				<path class="st0" d="M252.3,34.1h0.1c2.1,0,3.8,1.7,3.8,3.8v4.2c0,2.1-1.7,3.8-3.8,3.8h-0.1c-2.1,0-3.8-1.7-3.8-3.8v-4.2
					C248.5,35.8,250.2,34.1,252.3,34.1z"/>
			</g>
			<g>
				<path class="st0" d="M264.6,34.1h0.1c2.1,0,3.8,1.7,3.8,3.8v4.2c0,2.1-1.7,3.8-3.8,3.8h-0.1c-2.1,0-3.8-1.7-3.8-3.8v-4.2
					C260.8,35.8,262.5,34.1,264.6,34.1z"/>
			</g>
			<g>
				<path class="st0" d="M276.9,34.1h0.1c2.1,0,3.8,1.7,3.8,3.8v4.2c0,2.1-1.7,3.8-3.8,3.8h-0.1c-2.1,0-3.8-1.7-3.8-3.8v-4.2
					C273,35.8,274.7,34.1,276.9,34.1z"/>
			</g>
			<g>
				<path class="st0" d="M289.1,34.1h0.1c2.1,0,3.8,1.7,3.8,3.8v4.2c0,2.1-1.7,3.8-3.8,3.8h-0.1c-2.1,0-3.8-1.7-3.8-3.8v-4.2
					C285.3,35.8,287,34.1,289.1,34.1z"/>
			</g>
			<g>
				<path class="st0" d="M301.4,34.1h0.1c2.1,0,3.8,1.7,3.8,3.8v4.2c0,2.1-1.7,3.8-3.8,3.8h-0.1c-2.1,0-3.8-1.7-3.8-3.8v-4.2
					C297.6,35.8,299.3,34.1,301.4,34.1z"/>
			</g>
			<g>
				<path class="st0" d="M313.7,34.1h0.1c2.1,0,3.8,1.7,3.8,3.8v4.2c0,2.1-1.7,3.8-3.8,3.8h-0.1c-2.1,0-3.8-1.7-3.8-3.8v-4.2
					C309.8,35.8,311.5,34.1,313.7,34.1z"/>
			</g>
			<g>
				<path class="st0" d="M325.9,34.1h0.1c2.1,0,3.8,1.7,3.8,3.8v4.2c0,2.1-1.7,3.8-3.8,3.8h-0.1c-2.1,0-3.8-1.7-3.8-3.8v-4.2
					C322.1,35.8,323.8,34.1,325.9,34.1z"/>
			</g>
			<g>
				<path class="st0" d="M338.2,34.1h0.1c2.1,0,3.8,1.7,3.8,3.8v4.2c0,2.1-1.7,3.8-3.8,3.8h-0.1c-2.1,0-3.8-1.7-3.8-3.8v-4.2
					C334.4,35.8,336.1,34.1,338.2,34.1z"/>
			</g>
			<g>
				<circle class="st0" cx="353.7" cy="146.4" r="3.5"/>
			</g>
			<g>
				
					<rect x="207.3" y="71" transform="matrix(0.9971 -7.617332e-02 7.617332e-02 0.9971 -4.793 17.3355)" class="st0" width="35.1" height="1"/>
			</g>
			<g>
				<path class="st0" d="M142.9,29.1h8.4c0.4,0,0.8,0.3,0.8,0.8v13c0,0.4-0.3,0.7-0.8,0.7c-0.1,0-0.1,0-0.2,0l-8.4-1.9
					c-0.3-0.1-0.6-0.4-0.6-0.7V29.8C142.2,29.4,142.5,29.1,142.9,29.1z"/>
			</g>
			<g>
				<path class="st0" d="M138.4,29.6v11c0,0.3-0.2,0.6-0.6,0.6c0,0,0,0-0.1,0l-11.8-1.1c-0.4,0-0.6-0.3-0.6-0.7
					c0-0.2,0.1-0.3,0.2-0.4l8.3-9.6c0.2-0.2,0.5-0.4,0.9-0.4h3C138.2,29.1,138.4,29.3,138.4,29.6L138.4,29.6z"/>
			</g>
			<g>
				<path class="st0" d="M103.4,40.3l16.5-0.9c0.4,0,0.7-0.2,1-0.5l8.7-9.3c0.1-0.1,0.1-0.4,0-0.5s-0.2-0.1-0.3-0.1l-12.4,0.3
					c-0.4,0-0.8,0.2-1.1,0.4c-4,3.5-8.3,6.8-12.7,9.8c-0.2,0.1-0.2,0.3-0.1,0.5C103.1,40.3,103.3,40.3,103.4,40.3z"/>
			</g>
			<g>
				<polygon class="st0" points="160,16.7 160,9.6 161,9.6 161,15.6 172.8,14.8 174.3,8 175.3,8.2 173.7,15.7 				"/>
			</g>
			<g class="st1">
				<circle class="st0" cx="110.5" cy="119.3" r="2.8"/>
			</g>
			<g>
				<polygon class="st0" points="107.8,121.4 101.9,121.4 101.9,120.4 107.6,120.4 110.3,118.9 110.8,119.7 				"/>
			</g>
			<g class="st1">
				<circle class="st0" cx="106.1" cy="129.5" r="2.8"/>
			</g>
			<g>
				<polygon class="st0" points="103.4,131.7 97.5,131.7 97.5,130.7 103.2,130.7 105.9,129.1 106.4,130 				"/>
			</g>
			<g>
				<path class="st0" d="M293,4.8h-1c0-2.8,2.7-4.5,5.4-4.7c2.8-0.2,5.9,1.1,6.5,4.5l-1,0.2c-0.5-2.8-3.1-3.9-5.5-3.7
					C295.3,1.2,293,2.6,293,4.8z"/>
			</g>
			<g>
				<path class="st0" d="M235.9,131.1h-19.2c-3.1,0-5.6-2.5-5.6-5.6V81.2c0-3.1,2.5-5.6,5.6-5.6h19.2c3.1,0,5.6,2.5,5.6,5.6v44.3
					C241.5,128.5,239,131.1,235.9,131.1z M216.7,77.5c-2,0-3.6,1.6-3.6,3.6v44.3c0,2,1.6,3.6,3.6,3.6h19.2c2,0,3.6-1.6,3.6-3.6V81.2
					c0-2-1.6-3.6-3.6-3.6L216.7,77.5L216.7,77.5z"/>
			</g>
			<g>
				<path class="st0" d="M373.2,63.5h-19.8c-2.9,0-5.3-2.4-5.3-5.3V19.9c0-2.9,2.4-5.3,5.3-5.3h19.8c2.9,0,5.3,2.4,5.3,5.3v38.3
					C378.5,61.2,376.1,63.5,373.2,63.5z M353.4,16.6c-1.8,0-3.3,1.5-3.3,3.3v38.3c0,1.8,1.5,3.3,3.3,3.3h19.8c1.8,0,3.3-1.5,3.3-3.3
					V19.9c0-1.8-1.5-3.3-3.3-3.3H353.4z"/>
			</g>
		</g>
	</g>
</g>
</svg>
