<?xml version="1.0" encoding="utf-8"?>
<!-- Generator: Adobe Illustrator 25.3.1, SVG Export Plug-In . SVG Version: 6.00 Build 0)  -->
<svg version="1.1" id="图层_1" xmlns="http://www.w3.org/2000/svg" xmlns:xlink="http://www.w3.org/1999/xlink" x="0px" y="0px"
	 viewBox="0 0 384.5 187.7" style="enable-background:new 0 0 384.5 187.7;" xml:space="preserve">
<style type="text/css">
	.st0{fill:#9E9E9E;}
	.st1{opacity:0.5;enable-background:new    ;}
</style>
<g id="图层_2_1_">
	<g id="图层_1-2">
		<g id="_757">
			<g>
				<path class="st0" d="M384.5,187.7H185.7C120.1,185.4,34.6,176,9.3,156.8c-5.8-4.9-9.1-11.2-9.3-18c-0.2-7.3,3.1-14.5,9.2-20.2
					C21.4,107.4,34.8,97.4,49.1,89c2.8-1.7,5.3-3.7,7.4-6.2l19-21.6c24.8-22.1,62.7-38.6,112.8-49.2c49.8-10.5,98-12,122.3-12h73.9
					v3h-73.9c-24.2,0-72.2,1.6-121.7,12s-87,26.7-111.4,48.4L58.8,84.7c-2.3,2.7-5.1,5-8.1,6.8c-14.1,8.3-27.3,18.2-39.4,29.3
					c-5.5,5.1-8.4,11.4-8.2,17.9c0.2,6,3,11.5,8.2,15.8c11,8.4,35.9,15.7,71.8,21.3c29.7,4.5,66.1,7.7,102.7,9h198.8L384.5,187.7
					L384.5,187.7z"/>
			</g>
			<g>
				<path class="st0" d="M279.3,186.1h-1v-4.4h-59.1c-41.1,0-82.7-2.7-123.5-7.9v5.1h-1v-6.3l0.6,0.1c40.9,5.3,82.6,8,123.9,8h60.1
					V186.1z"/>
			</g>
			<g>
				<rect x="218.6" y="181.3" class="st0" width="1" height="4.9"/>
			</g>
			<g>
				<rect x="170.4" y="17.6" class="st0" width="1" height="162.4"/>
			</g>
			<g>
				<rect x="346.8" y="1.5" class="st0" width="1" height="184.7"/>
			</g>
			<g>
				<rect x="251.9" y="50.1" class="st0" width="132.7" height="1"/>
			</g>
			<g>
				<rect x="347.3" y="100.5" class="st0" width="37.2" height="1"/>
			</g>
			<g>
				<rect x="347.3" y="141.3" class="st0" width="37.2" height="1"/>
			</g>
			<g>
				<path class="st0" d="M48.5,170.4h-1v-55.7c0-3-0.9-5.8-2.7-8.2l-6.4-9l0.8-0.6l6.4,9c1.9,2.6,2.8,5.6,2.9,8.8V170.4z"/>
			</g>
			<g>
				<path class="st0" d="M14,126.6l-0.4-0.9c11-4.6,22.5-7.6,34.3-8.9l0.1,1C36.3,119.1,24.9,122,14,126.6z"/>
			</g>
			<g>
				<path class="st0" d="M48,152c-11.5-0.7-23.1-2.5-34.3-5.4l0.2-1c11.1,2.9,22.6,4.6,34.1,5.3V152z"/>
			</g>
			<g>
				<path class="st0" d="M134.5,149.4c-26.3,0-57-2.4-86.5-4.9l0.1-1c32.6,2.7,66.7,5.3,94.5,4.8h204.7v1H142.6
					C139.9,149.4,137.2,149.4,134.5,149.4z"/>
			</g>
			<g>
				<path class="st0" d="M171,29.1l-0.2-1c46.4-9.4,93.5-14.8,129.2-14.8h84.5v1H300C264.4,14.4,217.4,19.8,171,29.1z"/>
			</g>
			<g>
				<circle class="st0" cx="232.6" cy="58.4" r="3.9"/>
			</g>
			<g>
				<path class="st0" d="M289.5,63.2L289.5,63.2c3.4,0,6,2.7,6,6v6c0,3.3-2.7,6-6,6l0,0c-3.3,0-6-2.7-6-6v-6
					C283.5,65.9,286.2,63.2,289.5,63.2z"/>
			</g>
			<g>
				<path class="st0" d="M312.8,63.2L312.8,63.2c3.4,0,6,2.7,6,6v6c0,3.3-2.7,6-6,6l0,0c-3.3,0-6-2.7-6-6v-6
					C306.8,65.9,309.5,63.2,312.8,63.2z"/>
			</g>
			<g>
				<path class="st0" d="M336.1,63.2L336.1,63.2c3.4,0,6,2.7,6,6v6c0,3.3-2.7,6-6,6l0,0c-3.3,0-6-2.7-6-6v-6
					C330.1,65.9,332.8,63.2,336.1,63.2z"/>
			</g>
			<g>
				<path class="st0" d="M359.4,63.2L359.4,63.2c3.4,0,6,2.7,6,6v6c0,3.3-2.7,6-6,6l0,0c-3.3,0-6-2.7-6-6v-6
					C353.5,65.9,356.1,63.2,359.4,63.2z"/>
			</g>
			<g>
				<path class="st0" d="M384.5,63.5c-0.6-0.2-1.1-0.3-1.7-0.3l0,0c-3.3,0-6,2.7-6,6v6c0,3.3,2.7,6,6,6l0,0c0.6,0,1.2-0.1,1.7-0.2
					V63.5z"/>
			</g>
			<g>
				<path class="st0" d="M121.6,63.3l16.7,1.9c0.9,0.1,1.6,0.9,1.6,1.8v15.4c0,0.7-0.5,1.4-1.2,1.6l-27.8,8.6
					c-0.4,0.1-0.8-0.1-0.9-0.5c0-0.1,0-0.3,0-0.4c3.2-9.7,6.5-18.9,9.9-27.5C120.2,63.6,120.9,63.2,121.6,63.3z"/>
			</g>
			<g>
				<path class="st0" d="M114.7,64.4c-3.3,8.2-6.6,17.2-9.8,26.8c-0.2,0.7-0.9,1-1.6,0.8l-18.7-5.4c-0.6-0.2-0.9-0.8-0.7-1.3
					c0-0.1,0.1-0.2,0.1-0.3l15.3-21.2c0.3-0.4,0.7-0.6,1.2-0.6h13.4c0.5,0,0.9,0.4,0.9,0.9C114.7,64.2,114.7,64.3,114.7,64.4z"/>
			</g>
			<g>
				<path class="st0" d="M77.4,65.2L93,63.4c0.4,0,0.8,0.3,0.8,0.7c0,0.2,0,0.4-0.1,0.5L78.3,85.3c-0.4,0.6-1.1,1-1.9,1H60.2
					c-0.4,0-0.8-0.3-0.8-0.8c0-0.2,0.1-0.4,0.2-0.5L76,65.9C76.4,65.5,76.8,65.3,77.4,65.2z"/>
			</g>
			<g>
				<rect x="101.7" y="90.1" class="st0" width="1" height="57.9"/>
			</g>
			<g>
				<rect x="135.6" y="77.5" class="st0" width="67.3" height="1"/>
			</g>
			<g>
				<path class="st0" d="M216,108.1h-9.8c-2.1,0-3.8-1.7-3.8-3.8V63c0-2.1,1.7-3.8,3.8-3.8h9.8V108.1z M206.2,60.2
					c-1.5,0-2.8,1.3-2.8,2.8v41.3c0,1.5,1.3,2.8,2.8,2.8h8.8V60.2H206.2z"/>
			</g>
			<g>
				<path class="st0" d="M225.2,73.7h-22.8v-5.2h22.8V73.7z M203.4,72.7h20.8v-3.2h-20.8V72.7z"/>
			</g>
			<g>
				<path class="st0" d="M225.2,102.5h-22.8v-5.2h22.8V102.5z M203.4,101.5h20.8v-3.2h-20.8V101.5z"/>
			</g>
			<g>
				<path class="st0" d="M246.5,118.5h-25.7c-3.5,0-6.3-2.8-6.3-6.3V38.1c0-3.5,2.8-6.3,6.3-6.3h25.7c3.5,0,6.3,2.8,6.3,6.3v74.1
					C252.9,115.7,250,118.5,246.5,118.5z M220.8,33.8c-2.4,0-4.3,1.9-4.3,4.3v74.1c0,2.4,1.9,4.3,4.3,4.3h25.7
					c2.4,0,4.3-1.9,4.3-4.3V38.1c0-2.4-1.9-4.3-4.3-4.3H220.8z"/>
			</g>
			<g>
				<rect x="228.1" y="44.8" class="st0" width="8.9" height="4.6"/>
			</g>
			<g class="st1">
				<polygon class="st0" points="252.9,110.4 252.9,122.8 214.5,122.8 214.5,110.4 217.3,116.6 249.7,116.6 				"/>
			</g>
			<g>
				<path class="st0" d="M361.6,156.4h-10.4V146h10.4V156.4z M352.3,155.4h8.4V147h-8.4V155.4z"/>
			</g>
			<g>
				<path class="st0" d="M77.1,129.2c-1.7,0-3.1-1.4-3.1-3.1s1.4-3.1,3.1-3.1s3.1,1.4,3.1,3.1S78.8,129.2,77.1,129.2z M77.1,124
					c-1.1,0-2.1,0.9-2.1,2.1s0.9,2.1,2.1,2.1c1.1,0,2.1-0.9,2.1-2.1S78.3,124,77.1,124z"/>
			</g>
			<g class="st1">
				<circle class="st0" cx="62.1" cy="102" r="2.2"/>
			</g>
			<g>
				<polygon class="st0" points="61,103.8 55.6,103.8 55.6,102.8 60.6,102.8 61.8,101.6 62.5,102.3 				"/>
			</g>
			<g class="st1">
				<circle class="st0" cx="62.1" cy="113.5" r="2.2"/>
			</g>
			<g>
				<polygon class="st0" points="61,115.3 55.6,115.3 55.6,114.3 60.6,114.3 61.8,113.1 62.5,113.8 				"/>
			</g>
		</g>
	</g>
</g>
</svg>
