<?xml version="1.0" encoding="utf-8"?>
<!-- Generator: Adobe Illustrator 25.3.1, SVG Export Plug-In . SVG Version: 6.00 Build 0)  -->
<svg version="1.1" id="图层_1" xmlns="http://www.w3.org/2000/svg" xmlns:xlink="http://www.w3.org/1999/xlink" x="0px" y="0px"
	 viewBox="0 0 385.7 200.4" style="enable-background:new 0 0 385.7 200.4;" xml:space="preserve">
<style type="text/css">
	.st0{fill:#9E9E9E;}
	.st1{opacity:0.5;enable-background:new    ;}
</style>
<g id="图层_2_1_">
	<g id="图层_1-2">
		<g id="_767">
			<g>
				<path class="st0" d="M385.7,184.2H207.1c-53.8,0-115-12.4-159.9-32.4C15.5,137.3,0.1,123.1,0,108.4c0-14.1,14-27.5,42.9-41
					c2.5-1.2,4.8-3,6.5-5.2c16-20.2,42.4-36.6,76.4-47.5C155.6,5.2,191.2,0,226.2,0h159.5v3H226.2c-34.7,0-70,5.2-99.4,14.6
					c-33.4,10.7-59.3,26.8-75,46.5c-2,2.6-4.7,4.7-7.6,6C16.8,82.9,3,95.8,3,108.4c0,13.2,15.4,26.9,45.5,40.7
					c44.5,19.8,105.2,32.2,158.6,32.2h178.5v2.9H385.7z"/>
			</g>
			<g>
				<path class="st0" d="M375.8,200.4h-9.4l-12.1-18.7H369L375.8,200.4z M367.5,198.4h5.4l-5.3-14.7H358L367.5,198.4z"/>
			</g>
			<g>
				<rect x="131" y="14.6" class="st0" width="1" height="160.9"/>
			</g>
			<g>
				<rect x="271.8" y="1.5" class="st0" width="1" height="181.2"/>
			</g>
			<g>
				<rect x="36.4" y="72.1" class="st0" width="1" height="73"/>
			</g>
			<g>
				<rect x="36.9" y="108.5" class="st0" width="94.7" height="1"/>
			</g>
			<g>
				<path class="st0" d="M131.5,155.3c-35.3-5.8-67.2-14.5-94.8-26l0.4-0.9c27.5,11.5,59.3,20.2,94.6,26L131.5,155.3z"/>
			</g>
			<g>
				<path class="st0" d="M124,174h-1v-11c-30.7-5.7-55.9-13.3-79-23.6l0.2,9.1h-1L43,137.8l0.7,0.3c23.3,10.6,48.7,18.2,79.9,24
					l0.4,0.1C124,162.2,124,174,124,174z"/>
			</g>
			<g>
				<path class="st0" d="M385.7,136.1H225.1c-31.1,0-62.6-1.8-93.6-5.1l0.1-1c30.9,3.4,62.4,5.1,93.5,5.1h160.6V136.1z"/>
			</g>
			<g>
				<path class="st0" d="M328.4,154.7h-7.2v-7.2h7.2V154.7z M322.2,153.7h5.2v-5.2h-5.2V153.7z"/>
			</g>
			<g>
				<path class="st0" d="M266.5,134h-7v-5.2h7V134z M260.5,133h5v-3.2h-5V133z"/>
			</g>
			<g>
				<rect x="131.5" y="81.4" class="st0" width="43.4" height="1"/>
			</g>
			<g>
				<rect x="208.2" y="81.4" class="st0" width="177.5" height="1"/>
			</g>
			<g>
				<path class="st0" d="M131.7,27.8l-0.3-1c38.1-11.2,82.8-16.4,132.7-15.5h121.6v1H264.1C214.2,11.5,169.7,16.7,131.7,27.8z"/>
			</g>
			<g>
				<path class="st0" d="M243.4,58.4h0.1c2.6,0,4.8,2.1,4.8,4.8v6.2c0,2.6-2.1,4.8-4.8,4.8h-0.1c-2.6,0-4.8-2.1-4.8-4.8v-6.2
					C238.6,60.6,240.7,58.4,243.4,58.4z"/>
			</g>
			<g>
				<path class="st0" d="M262.2,58.4h0.1c2.6,0,4.8,2.1,4.8,4.8v6.2c0,2.6-2.1,4.8-4.8,4.8h-0.1c-2.6,0-4.8-2.1-4.8-4.8v-6.2
					C257.5,60.6,259.6,58.4,262.2,58.4z"/>
			</g>
			<g>
				<path class="st0" d="M281.1,58.4h0.1c2.6,0,4.8,2.1,4.8,4.8v6.2c0,2.6-2.1,4.8-4.8,4.8h-0.1c-2.6,0-4.8-2.1-4.8-4.8v-6.2
					C276.3,60.6,278.5,58.4,281.1,58.4z"/>
			</g>
			<g>
				<path class="st0" d="M300,58.4h0.1c2.6,0,4.8,2.1,4.8,4.8v6.2c0,2.6-2.1,4.8-4.8,4.8H300c-2.6,0-4.8-2.1-4.8-4.8v-6.2
					C295.2,60.6,297.3,58.4,300,58.4z"/>
			</g>
			<g>
				<path class="st0" d="M318.9,58.4h0.1c2.6,0,4.8,2.1,4.8,4.8v6.2c0,2.6-2.1,4.8-4.8,4.8h-0.1c-2.6,0-4.8-2.1-4.8-4.8v-6.2
					C314.1,60.6,316.2,58.4,318.9,58.4z"/>
			</g>
			<g>
				<path class="st0" d="M337.7,58.4h0.1c2.6,0,4.8,2.1,4.8,4.8v6.2c0,2.6-2.1,4.8-4.8,4.8h-0.1c-2.6,0-4.8-2.1-4.8-4.8v-6.2
					C332.9,60.6,335.1,58.4,337.7,58.4z"/>
			</g>
			<g>
				<path class="st0" d="M356.6,58.4h0.1c2.6,0,4.8,2.1,4.8,4.8v6.2c0,2.6-2.1,4.8-4.8,4.8h-0.1c-2.6,0-4.8-2.1-4.8-4.8v-6.2
					C351.8,60.6,353.9,58.4,356.6,58.4z"/>
			</g>
			<g>
				<path class="st0" d="M375.5,58.4h0.1c2.6,0,4.8,2.1,4.8,4.8v6.2c0,2.6-2.1,4.8-4.8,4.8h-0.1c-2.6,0-4.8-2.1-4.8-4.8v-6.2
					C370.7,60.6,372.8,58.4,375.5,58.4z"/>
			</g>
			<g>
				<path class="st0" d="M203.7,104h-25.3c-2.4,0-4.4-2-4.4-4.4V49.4c0-2.4,2-4.4,4.4-4.4h25.3c2.4,0,4.4,2,4.4,4.4v50.1
					C208.1,102,206.2,104,203.7,104z M178.4,47c-1.3,0-2.4,1.1-2.4,2.4v50.1c0,1.3,1.1,2.4,2.4,2.4h25.3c1.3,0,2.4-1.1,2.4-2.4V49.4
					c0-1.3-1.1-2.4-2.4-2.4H178.4z"/>
			</g>
			<g>
				<circle class="st0" cx="191.1" cy="59.3" r="2.8"/>
			</g>
			<g class="st1">
				<polygon class="st0" points="174,99.6 174,106.6 208.2,106.6 208.2,99.6 204.8,103 177.3,103 				"/>
			</g>
			<g class="st1">
				<circle class="st0" cx="84.9" cy="96.4" r="2.9"/>
			</g>
			<g>
				<polygon class="st0" points="83,99 75.7,99 75.7,98 82.6,98 84.5,96.1 85.2,96.8 				"/>
			</g>
			<g class="st1">
				<circle class="st0" cx="84.9" cy="111.4" r="2.9"/>
			</g>
			<g>
				<polygon class="st0" points="83,113.9 75.7,113.9 75.7,112.9 82.6,112.9 84.5,111 85.2,111.7 				"/>
			</g>
			<g>
				<rect x="90.3" y="31" class="st0" width="1" height="24.1"/>
			</g>
			<g>
				<rect x="95.9" y="52.5" class="st0" width="35.7" height="1"/>
			</g>
			<g>
				<rect x="90.3" y="68.5" class="st0" width="1" height="40.5"/>
			</g>
			<g>
				<polygon class="st0" points="58.6,54.3 69.4,52.1 56.8,69.3 42.5,69.3 48.3,66.5 				"/>
			</g>
			<g>
				<polygon class="st0" points="72.3,52.1 83.6,52.1 74.4,74.5 60,69.3 				"/>
			</g>
			<g>
				<polygon class="st0" points="86.2,52.1 97.3,52.1 96.8,70.8 77.6,74.5 				"/>
			</g>
		</g>
	</g>
</g>
</svg>
