<?xml version="1.0" encoding="utf-8"?>
<!-- Generator: Adobe Illustrator 25.3.1, SVG Export Plug-In . SVG Version: 6.00 Build 0)  -->
<svg version="1.1" id="图层_1" xmlns="http://www.w3.org/2000/svg" xmlns:xlink="http://www.w3.org/1999/xlink" x="0px" y="0px"
	 viewBox="0 0 385.8 198.9" style="enable-background:new 0 0 385.8 198.9;" xml:space="preserve">
<style type="text/css">
	.st0{fill:#9E9E9E;}
	.st1{opacity:0.5;enable-background:new    ;}
</style>
<g id="图层_2_1_">
	<g id="图层_1-2">
		<g id="_777">
			<g>
				<path class="st0" d="M385.8,188.3H259.5c-114.6,0-199.7-32.4-223-42.3C12.3,135.7,0.4,125.1,0,113.6S10.7,90.8,33.8,79
					c1.6-0.8,3-1.9,4.1-3.2c11.4-13,22.8-22.4,33.9-27.8C128.3,19.3,234.1,0,297.5,0h88.2v3h-88.2c-63,0-168.2,19.2-224.4,47.7
					C62.4,56,51.3,65.1,40.2,77.8c-1.4,1.6-3.1,2.9-5,3.9C13.5,92.7,2.7,103.4,3,113.5s12,20.1,34.7,29.8
					c23.2,9.9,107.7,42.1,221.8,42.1h126.3V188.3z"/>
			</g>
			<g>
				<rect x="125.1" y="28.8" class="st0" width="1" height="143.3"/>
			</g>
			<g>
				<path class="st0" d="M33.1,142.6h-1V93c0-1.8-0.4-3.6-1.2-5.2l-2.2-4.4l0.9-0.4l2.2,4.4c0.9,1.7,1.3,3.7,1.3,5.6V142.6z"/>
			</g>
			<g>
				<path class="st0" d="M3,107.4l-0.6-0.8C10,100.1,19.2,96,29.1,94.5l0.1,1C19.5,96.9,10.5,101,3,107.4z"/>
			</g>
			<g>
				<path class="st0" d="M29.1,129.5c-9.4-1.9-18.4-5.3-26.6-10.1l0.5-0.9c8.2,4.8,17,8.2,26.3,10L29.1,129.5z"/>
			</g>
			<g>
				<rect x="32.6" y="121.1" class="st0" width="93.1" height="1"/>
			</g>
			<g>
				<path class="st0" d="M79.7,63.6h10.2c0.4,0,0.7,0.3,0.7,0.7v13.6c0,0.4-0.3,0.7-0.6,0.8l-17,3.8c-0.3,0.1-0.7-0.1-0.8-0.5
					c0-0.1,0-0.2,0-0.4l6.6-17.5C79,63.8,79.3,63.6,79.7,63.6z"/>
			</g>
			<g>
				<path class="st0" d="M65.8,63.6h9.1c0.4,0,0.7,0.3,0.7,0.7c0,0.1,0,0.2,0,0.2l-5.8,15.9c-0.1,0.4-0.6,0.6-1,0.5l-12.5-3.7
					c-0.3-0.1-0.5-0.4-0.4-0.8c0-0.1,0.1-0.2,0.1-0.2L64.9,64C65.2,63.7,65.5,63.6,65.8,63.6z"/>
			</g>
			<g>
				<path class="st0" d="M52.2,76.7l9.3-12.3c0.1-0.2,0.1-0.5-0.1-0.6c-0.1-0.1-0.2-0.1-0.3-0.1l-9.3,0.9c-4,3.5-8.8,9.6-13,14.4
					L51,77.3C51.5,77.3,51.9,77.1,52.2,76.7z"/>
			</g>
			<g>
				<rect x="90.6" y="73.2" class="st0" width="35.1" height="1"/>
			</g>
			<g>
				<rect x="81.8" y="80.4" class="st0" width="1" height="80.7"/>
			</g>
			<g>
				<rect x="222.9" y="95.9" class="st0" width="162.9" height="1"/>
			</g>
			<g>
				<rect x="125.6" y="95.9" class="st0" width="62.1" height="1"/>
			</g>
			<g>
				<path class="st0" d="M125.8,62.4l-0.3-0.9C180,43.4,240.7,32.2,283.7,32.2h102.1v1H283.7C240.8,33.2,180.3,44.4,125.8,62.4z"/>
			</g>
			<g>
				<path class="st0" d="M385.8,150.5H243.6c-30.9,0-96.5-8.4-118.1-11.2l0.1-1c21.5,2.8,87.1,11.2,117.9,11.2h142.2L385.8,150.5
					L385.8,150.5z"/>
			</g>
			<g>
				<path class="st0" d="M194.2,183.2h-1V178c-14.7-1.5-29.4-4.2-43.7-7.9l-1.9,6.5l-1-0.3l2.1-7.5l0.5,0.1
					c14.5,3.8,29.5,6.5,44.4,8.1h0.4v6.2H194.2z"/>
			</g>
			<g>
				<path class="st0" d="M249.8,72.8h0.3c2.7,0,4.9,2.2,4.9,4.9V82c0,2.7-2.2,4.9-4.9,4.9h-0.3c-2.7,0-4.9-2.2-4.9-4.9v-4.2
					C244.9,75,247.1,72.8,249.8,72.8z"/>
			</g>
			<g>
				<path class="st0" d="M214.1,72.8h2.8c1.5,0,2.8,1.2,2.8,2.8v8.6c0,1.5-1.2,2.8-2.8,2.8h-2.8c-1.5,0-2.8-1.2-2.8-2.8v-8.6
					C211.3,74.1,212.6,72.8,214.1,72.8z"/>
			</g>
			<g>
				<path class="st0" d="M267.2,72.8h0.3c2.7,0,4.9,2.2,4.9,4.9V82c0,2.7-2.2,4.9-4.9,4.9h-0.3c-2.7,0-4.9-2.2-4.9-4.9v-4.2
					C262.3,75,264.5,72.8,267.2,72.8z"/>
			</g>
			<g>
				<path class="st0" d="M284.6,72.8h0.3c2.7,0,4.9,2.2,4.9,4.9V82c0,2.7-2.2,4.9-4.9,4.9h-0.3c-2.7,0-4.9-2.2-4.9-4.9v-4.2
					C279.7,75,281.9,72.8,284.6,72.8z"/>
			</g>
			<g>
				<path class="st0" d="M302,72.8h0.3c2.7,0,4.9,2.2,4.9,4.9V82c0,2.7-2.2,4.9-4.9,4.9H302c-2.7,0-4.9-2.2-4.9-4.9v-4.2
					C297.1,75,299.3,72.8,302,72.8z"/>
			</g>
			<g>
				<path class="st0" d="M319.4,72.8h0.3c2.7,0,4.9,2.2,4.9,4.9V82c0,2.7-2.2,4.9-4.9,4.9h-0.3c-2.7,0-4.9-2.2-4.9-4.9v-4.2
					C314.5,75,316.7,72.8,319.4,72.8z"/>
			</g>
			<g>
				<path class="st0" d="M336.9,72.8h0.3c2.7,0,4.9,2.2,4.9,4.9V82c0,2.7-2.2,4.9-4.9,4.9h-0.3c-2.7,0-4.9-2.2-4.9-4.9v-4.2
					C331.9,75,334.1,72.8,336.9,72.8z"/>
			</g>
			<g>
				<path class="st0" d="M354.3,72.8h0.3c2.7,0,4.9,2.2,4.9,4.9V82c0,2.7-2.2,4.9-4.9,4.9h-0.3c-2.7,0-4.9-2.2-4.9-4.9v-4.2
					C349.4,75,351.6,72.8,354.3,72.8z"/>
			</g>
			<g>
				<path class="st0" d="M371.7,72.8h0.3c2.7,0,4.9,2.2,4.9,4.9V82c0,2.7-2.2,4.9-4.9,4.9h-0.3c-2.7,0-4.9-2.2-4.9-4.9v-4.2
					C366.8,75,369,72.8,371.7,72.8z"/>
			</g>
			<g>
				<path class="st0" d="M385.8,74.2c-1,0.9-1.6,2.2-1.6,3.6V82c0,1.4,0.6,2.7,1.6,3.6V74.2z"/>
			</g>
			<g>
				<path class="st0" d="M217.3,110.5h-24c-3.6,0-6.6-3-6.6-6.6V55.8c0-3.6,3-6.6,6.6-6.6h24c3.6,0,6.6,3,6.6,6.6V104
					C223.9,107.6,221,110.5,217.3,110.5z M193.4,51.2c-2.5,0-4.6,2.1-4.6,4.6V104c0,2.5,2.1,4.6,4.6,4.6h24c2.5,0,4.6-2.1,4.6-4.6
					V55.8c0-2.5-2.1-4.6-4.6-4.6H193.4z"/>
			</g>
			<g class="st1">
				<circle class="st0" cx="94.1" cy="133.7" r="2.7"/>
			</g>
			<g>
				<polygon class="st0" points="91.9,136.7 84.2,136.7 84.2,135.7 91.5,135.7 93.8,133.3 94.5,134.1 				"/>
			</g>
			<g class="st1">
				<circle class="st0" cx="85.3" cy="145.7" r="2.7"/>
			</g>
			<g>
				<polygon class="st0" points="83,148.6 75.4,148.6 75.4,147.6 82.6,147.6 84.9,145.3 85.6,146 				"/>
			</g>
			<g>
				<path class="st0" d="M250.6,198.9h-6.4l-9.3-13.5l10.4,0.3L250.6,198.9z M245.2,196.9h2.4l-3.7-9.3l-5.2-0.2L245.2,196.9z"/>
			</g>
			<g>
				<path class="st0" d="M221.5,159.2h-12.2v-9.4h12.2V159.2z M210.3,158.2h10.2v-7.4h-10.2V158.2z"/>
			</g>
			<g>
				<rect x="213.2" y="153.2" class="st0" width="4.5" height="2.2"/>
			</g>
			<g class="st1">
				<polygon class="st0" points="186.8,103.1 186.8,112.7 223.8,112.6 223.8,103.9 220,109 190.2,109 				"/>
			</g>
		</g>
	</g>
</g>
</svg>
