<?xml version="1.0" encoding="utf-8"?>
<!-- Generator: Adobe Illustrator 25.3.1, SVG Export Plug-In . SVG Version: 6.00 Build 0)  -->
<svg version="1.1" id="图层_1" xmlns="http://www.w3.org/2000/svg" xmlns:xlink="http://www.w3.org/1999/xlink" x="0px" y="0px"
	 viewBox="0 0 386.4 193.8" style="enable-background:new 0 0 386.4 193.8;" xml:space="preserve">
<style type="text/css">
	.st0{fill:#9E9E9E;}
	.st1{opacity:0.5;enable-background:new    ;}
</style>
<g id="图层_2_1_">
	<g id="图层_1-2">
		<g id="_787">
			<g>
				<path class="st0" d="M386.4,193.7l-140.2-2c-35.2-0.1-68.7-1.8-112-5.5c-43.9-4.5-80.6-12.7-112.2-25.1
					c-13.8-6.5-20.7-13-21.8-20.7c-1.3-9,5.2-19.4,21.2-33.8C38.8,89.4,57.5,73.1,77,58.2c17.9-13.1,37.5-23.4,58.5-30.6
					c42.3-13.4,90.6-21.4,143.4-23.8l107.5-1.2v3L279,6.8c-52.5,2.4-100.5,10.3-142.6,23.6c-20.6,7.1-40,17.2-57.6,30.2
					c-19.4,14.8-38,31-55.4,48.2C8.4,122.3,2,132.2,3.1,140c1,6.6,7.3,12.4,20,18.4c31.3,12.3,67.7,20.4,111.3,24.9
					c43.2,3.7,76.6,5.3,111.8,5.5l140.2,2L386.4,193.7z"/>
			</g>
			<g>
				
					<rect x="160.6" y="35.5" transform="matrix(0.983 -0.1835 0.1835 0.983 -3.2916 36.4292)" class="st0" width="69.2" height="1"/>
			</g>
			<g>
				<circle class="st0" cx="361.9" cy="153.2" r="3.6"/>
			</g>
			<g>
				<rect x="273.6" y="5.6" class="st0" width="1" height="185.1"/>
			</g>
			<g>
				<rect x="274.1" y="52.9" class="st0" width="112.3" height="1"/>
			</g>
			<g>
				<rect x="274.1" y="139.7" class="st0" width="112.3" height="1"/>
			</g>
			<g>
				<path class="st0" d="M263.4,63.1L263.4,63.1c2.6,0,4.7,2.1,4.7,4.7v6.7c0,2.6-2.1,4.7-4.7,4.7l0,0c-2.6,0-4.7-2.1-4.7-4.7v-6.7
					C258.7,65.2,260.8,63.1,263.4,63.1z"/>
			</g>
			<g>
				<path class="st0" d="M211.7,64.8L211.7,64.8c2.6,0,4.7,2.1,4.7,4.7v6.7c0,2.6-2.1,4.7-4.7,4.7l0,0c-2.6,0-4.7-2.1-4.7-4.7v-6.7
					C206.9,66.9,209.1,64.8,211.7,64.8z"/>
			</g>
			<g>
				<path class="st0" d="M282.9,63.1L282.9,63.1c2.6,0,4.7,2.1,4.7,4.7v6.7c0,2.6-2.1,4.7-4.7,4.7l0,0c-2.6,0-4.7-2.1-4.7-4.7v-6.7
					C278.1,65.2,280.2,63.1,282.9,63.1z"/>
			</g>
			<g>
				<path class="st0" d="M302.3,63.1L302.3,63.1c2.6,0,4.7,2.1,4.7,4.7v6.7c0,2.6-2.1,4.7-4.7,4.7l0,0c-2.6,0-4.7-2.1-4.7-4.7v-6.7
					C297.6,65.2,299.7,63.1,302.3,63.1z"/>
			</g>
			<g>
				<path class="st0" d="M321.7,63.1L321.7,63.1c2.6,0,4.7,2.1,4.7,4.7v6.7c0,2.6-2.1,4.7-4.7,4.7l0,0c-2.6,0-4.7-2.1-4.7-4.7v-6.7
					C317,65.2,319.1,63.1,321.7,63.1z"/>
			</g>
			<g>
				<path class="st0" d="M341.1,63.1L341.1,63.1c2.6,0,4.7,2.1,4.7,4.7v6.7c0,2.6-2.1,4.7-4.7,4.7l0,0c-2.6,0-4.7-2.1-4.7-4.7v-6.7
					C336.4,65.2,338.5,63.1,341.1,63.1z"/>
			</g>
			<g>
				<path class="st0" d="M360.6,63.1L360.6,63.1c2.6,0,4.7,2.1,4.7,4.7v6.7c0,2.6-2.1,4.7-4.7,4.7l0,0c-2.6,0-4.7-2.1-4.7-4.7v-6.7
					C355.9,65.2,358,63.1,360.6,63.1z"/>
			</g>
			<g>
				<path class="st0" d="M380,63.1L380,63.1c2.6,0,4.7,2.1,4.7,4.7v6.7c0,2.6-2.1,4.7-4.7,4.7l0,0c-2.6,0-4.7-2.1-4.7-4.7v-6.7
					C375.3,65.2,377.4,63.1,380,63.1z"/>
			</g>
			<g>
				<path class="st0" d="M204.4,57.6h-11.5c-1.7,0-3.1-1.4-3.1-3.1c0-1.7,1.4-3.1,3.1-3.1h11.5c1.7,0,3.1,1.4,3.1,3.1
					C207.5,56.3,206.1,57.6,204.4,57.6z M192.9,52.4c-1.2,0-2.1,0.9-2.1,2.1c0,1.2,0.9,2.1,2.1,2.1h11.5c1.2,0,2.1-0.9,2.1-2.1
					c0-1.2-0.9-2.1-2.1-2.1H192.9z"/>
			</g>
			<g>
				<path class="st0" d="M215.1,110h-32.9c-3.2,0-5.8-2.6-5.8-5.8V50.9c0-3.2,2.6-5.8,5.8-5.8h32.9c3.2,0,5.8,2.6,5.8,5.8v53.3
					C220.8,107.4,218.2,110,215.1,110z M182.1,47.2c-2.1,0-3.8,1.7-3.8,3.8v53.3c0,2.1,1.7,3.8,3.8,3.8H215c2.1,0,3.8-1.7,3.8-3.8
					V50.9c0-2.1-1.7-3.8-3.8-3.8L182.1,47.2L182.1,47.2z"/>
			</g>
			<g class="st1">
				<polygon class="st0" points="177.8,107.2 177.8,111.6 219.3,111.6 219.3,107.2 216,108.9 181.3,108.9 				"/>
			</g>
			<g>
				
					<rect x="36.7" y="95.3" transform="matrix(0.9987 -5.165791e-02 5.165791e-02 0.9987 -6.6944 2.0962)" class="st0" width="1" height="70.5"/>
			</g>
			<g>
				<path class="st0" d="M3.6,130.9L3,130.1c10.3-7.3,21.4-13.5,33-18.5l0.4,0.9C24.9,117.5,13.9,123.7,3.6,130.9z"/>
			</g>
			<g>
				<path class="st0" d="M38.4,155.4c-12.9-1.6-25.6-6.1-36.7-13.1l0.5-0.8c10.9,6.9,23.5,11.3,36.2,12.9V155.4z"/>
			</g>
			<g>
				<circle class="st0" cx="125" cy="114.4" r="2"/>
			</g>
			<g>
				<circle class="st0" cx="125" cy="138.6" r="1.3"/>
			</g>
			<g class="st1">
				<circle class="st0" cx="125" cy="160.3" r="2"/>
			</g>
			<g>
				<path class="st0" d="M88.7,64.8L72.1,81.6c-0.7,0.7-0.6,1.8,0.1,2.5c0.3,0.3,0.7,0.5,1.2,0.5h23.2c0.9,0,1.8-0.2,2.6-0.6l7.4-4
					c0.9-0.5,1.4-1.4,1.2-2.4l-1.5-11c-0.1-0.9-0.9-1.6-1.8-1.7l-13.2-1.1C90.4,63.7,89.4,64,88.7,64.8z"/>
			</g>
			<g>
				<path class="st0" d="M71.2,64.6l10.9-0.2c0.6,0.1,1.1,0.6,1.1,1.3c0,0.3-0.1,0.5-0.3,0.7L65.5,83c-0.8,0.8-1.9,1.3-3,1.3
					l-14.8-0.1C57.2,76.1,63.2,70.8,71.2,64.6z"/>
			</g>
			<g>
				<path class="st0" d="M362.8,4.5l-1-0.1c0.3-3.1,2.5-4.5,4.6-4.3c2,0.1,4.1,1.6,4.1,4.4h-1c0-2.2-1.6-3.3-3.2-3.4
					C364.7,0.9,363,2,362.8,4.5z"/>
			</g>
			<g>
				<polygon class="st0" points="123.3,167.4 122.7,166.7 124.5,165.1 124.5,160.3 125.5,160.3 125.5,165.6 				"/>
			</g>
		</g>
	</g>
</g>
</svg>
