<?xml version="1.0" encoding="utf-8"?>
<!-- Generator: Adobe Illustrator 25.3.1, SVG Export Plug-In . SVG Version: 6.00 Build 0)  -->
<svg version="1.1" id="图层_1" xmlns="http://www.w3.org/2000/svg" xmlns:xlink="http://www.w3.org/1999/xlink" x="0px" y="0px"
	 viewBox="0 0 385.8 193.5" style="enable-background:new 0 0 385.8 193.5;" xml:space="preserve">
<style type="text/css">
	.st0{fill:#9E9E9E;}
	.st1{opacity:0.5;enable-background:new    ;}
</style>
<g id="图层_2_1_">
	<g id="图层_1-2">
		<g id="MD11">
			<g>
				<path class="st0" d="M385.8,180.9h-74.2c-21.6,0-46.1-1.6-67.8-3l-8.4-0.5c-38.9-2.9-78-8.4-116.2-16.3
					C86,153.6,56.3,144.4,31,133.8c-18.2-8.4-28.4-17.5-30.5-27c-1.3-5.7,0.4-11.5,5.1-17.1c6.7-7.5,14.6-13.6,23.4-18.4
					c1.6-0.9,3-2,4.3-3.4l9-9.9c4.1-4.5,8.7-8.4,13.7-11.7c10.7-6.9,22.3-12.4,34.5-16.2c36.2-12.9,79.8-21.4,129.3-25.1
					c41.1-3.4,95.4-5.1,166-5.1v3C315.3,3,261.1,4.7,220,8.1c-49.3,3.7-92.6,12.1-128.6,25c-12,3.8-23.3,9.1-33.8,15.8
					c-4.8,3.2-9.3,6.9-13.2,11.2l-9,9.9c-1.5,1.6-3.2,3-5.1,4c-8.5,4.6-16.1,10.5-22.5,17.7c-4,4.8-5.5,9.7-4.5,14.5
					c1.9,8.4,11.8,17,28.8,24.9c25.1,10.5,54.6,19.6,87.6,27c38,7.9,77,13.4,115.8,16.3l8.4,0.5c21.6,1.4,46.1,3,67.6,3h74.2V180.9z
					"/>
			</g>
			<g>
				<rect x="124.4" y="21.4" class="st0" width="1" height="120.4"/>
			</g>
			<g>
				<path class="st0" d="M172.4,149c-40.7-4.8-81.6-12-121.5-21.5l0.2-1C91,136,131.8,143.3,172.5,148L172.4,149z"/>
			</g>
			<g>
				<rect x="50.5" y="68.8" class="st0" width="1" height="71.3"/>
			</g>
			<g>
				<polygon class="st0" points="28.5,131.3 28.2,85 22.7,77 23.5,76.4 29.2,84.7 29.5,131.3 				"/>
			</g>
			<g>
				<path class="st0" d="M17.8,122c-7.6-6.2-11.4-12.8-11.3-19.4c0.2-8,6-16.3,17.3-24.7l0.6,0.8c-11.1,8.3-16.7,16.3-16.9,24
					c-0.1,6.3,3.5,12.6,10.9,18.6L17.8,122z"/>
			</g>
			<g>
				<rect x="29" y="93" transform="matrix(1 -4.882754e-03 4.882754e-03 1 -0.4558 0.4191)" class="st0" width="113.1" height="1"/>
			</g>
			<g>
				<rect x="108.9" y="139.2" class="st0" width="1" height="18.1"/>
			</g>
			<g>
				<polygon class="st0" points="169.6,168.6 168.6,168.4 178.9,106.1 176.8,11.2 177.8,11.2 179.9,106.2 				"/>
			</g>
			<g>
				<circle class="st0" cx="189.1" cy="132.2" r="2.6"/>
			</g>
			<g>
				<path class="st0" d="M189.1,136.8c-2.5,0-4.6-2.1-4.6-4.6s2.1-4.6,4.6-4.6s4.6,2.1,4.6,4.6S191.6,136.8,189.1,136.8z
					 M189.1,128.1c-2.3,0-4.1,1.8-4.1,4.1c0,2.3,1.8,4.1,4.1,4.1s4.1-1.8,4.1-4.1C193.1,129.9,191.3,128.1,189.1,128.1z"/>
			</g>
			<g>
				
					<rect x="179.4" y="104.9" transform="matrix(1 -7.812262e-03 7.812262e-03 1 -0.8149 2.2109)" class="st0" width="206.4" height="1"/>
			</g>
			<g>
				
					<rect x="179.4" y="83.5" transform="matrix(1 -4.882754e-03 4.882754e-03 1 -0.4067 1.3808)" class="st0" width="206.4" height="1"/>
			</g>
			<g>
				
					<rect x="178.5" y="65.7" transform="matrix(1 -4.882754e-03 4.882754e-03 1 -0.3199 1.3785)" class="st0" width="207.2" height="1"/>
			</g>
			<g>
				
					<rect x="66.3" y="44.4" transform="matrix(0.2782 -0.9605 0.9605 0.2782 10.6741 103.9845)" class="st0" width="16.5" height="1"/>
			</g>
			<g>
				<path class="st0" d="M75.8,41.5l-0.3-0.9c38.1-13.4,77.7-22.6,117.8-27.4c61.1-7.6,125.9-8.3,192.4-8.3v1
					c-66.5,0-131.3,0.6-192.3,8.3C153.4,18.9,113.8,28.1,75.8,41.5z"/>
			</g>
			<g>
				<rect x="135.1" y="44.2" transform="matrix(0.992 -0.126 0.126 0.992 -4.4128 19.6206)" class="st0" width="35.7" height="1"/>
			</g>
			<g>
				
					<rect x="268.2" y="145.6" transform="matrix(1 -1.953121e-03 1.953121e-03 1 -0.2848 0.6389)" class="st0" width="117.6" height="1"/>
			</g>
			<g>
				<path class="st0" d="M232.6,160.3c-1.7,0-3-1.3-3-3s1.3-3,3-3s3,1.3,3,3S234.3,160.3,232.6,160.3z M232.6,155.3
					c-1.1,0-2,0.9-2,2s0.9,2,2,2s2-0.9,2-2S233.7,155.3,232.6,155.3z"/>
			</g>
			<g>
				<path class="st0" d="M233.1,152.6c-1.7,0-3-1.3-3-3s1.3-3,3-3s3,1.3,3,3S234.8,152.6,233.1,152.6z M233.1,147.6
					c-1.1,0-2,0.9-2,2s0.9,2,2,2s2-0.9,2-2S234.2,147.6,233.1,147.6z"/>
			</g>
			<g>
				<path class="st0" d="M265.8,161.7c0,0-0.1,0-0.1,0l-26.4-1.2c-1.2-0.1-2.2-1.1-2.2-2.4l0.5-26.5c0.1-2.8,2.4-5.1,5.3-5l21.8,0.6
					c2.5,0.1,4.4,2.1,4.4,4.6l-0.8,27.6c0,0.7-0.3,1.2-0.8,1.7C266.9,161.5,266.4,161.7,265.8,161.7z M242.7,127.5
					c-2.2,0-4.1,1.8-4.1,4l-0.5,0l0.5,0l-0.5,26.5c0,0.7,0.5,1.3,1.2,1.3l26.4,1.2c0.4,0,0.7-0.1,1-0.3c0.3-0.2,0.4-0.6,0.4-0.9
					l0.8-27.6c0.1-1.9-1.5-3.5-3.4-3.6l-21.8-0.6C242.8,127.5,242.7,127.5,242.7,127.5z"/>
			</g>
			<g>
				<path class="st0" d="M225.1,160.1c0,0-0.1,0-0.1,0c-0.1,0-0.1,0-0.2,0l-24.9-2.5c-1.6-0.2-2.9-1.6-2.9-3.2l0.4-24.9
					c0-2.5,2.1-4.6,4.6-4.6c0.1,0,0.2,0,0.3,0l22.8,1.5c2.3,0.1,4.1,2.1,4.1,4.4l-0.8,26.1C228.4,158.6,226.9,160.1,225.1,160.1z
					 M202.1,125.9c-2,0-3.6,1.6-3.6,3.6l-0.4,24.9c0,1.1,0.9,2.1,2,2.2l25,2.5c1.3,0,2.4-1,2.4-2.3l0.8-26.1
					c0.1-1.8-1.3-3.3-3.1-3.4l-22.8-1.5C202.3,125.9,202.2,125.9,202.1,125.9z"/>
			</g>
			<g class="st1">
				<path class="st0" d="M48.2,54.3h12.6c0.5,0,0.9-0.1,1.3-0.2c2.7-0.8,5.6-1.3,8.4-1.6l26.7-1c0.7,0,1.3,0.5,1.3,1.2c0,0,0,0,0,0
					l0.3,21.9c0,2.1-1.6,3.7-3.7,3.8c-0.1,0-0.2,0-0.2,0L71,77l-5.1-0.2c-0.5,0-1-0.2-1.5-0.5c-3.9-2.9-8.1-5.3-12.5-7.3
					c-0.3-0.2-0.7-0.2-1.1-0.2c-4,0.1-10.8,1.2-17.7,2.4l-0.8-0.3l1.6-1.5l5.8-6.4L48.2,54.3z"/>
			</g>
			<g>
				<path class="st0" d="M189.6,69.7h1.2c1.8,0,3.2,1.4,3.2,3.2v5.1c0,1.8-1.4,3.2-3.2,3.2h-1.2c-1.8,0-3.2-1.4-3.2-3.2v-5.1
					C186.4,71.2,187.9,69.7,189.6,69.7z"/>
			</g>
			<g>
				<path class="st0" d="M205,69.7h1.2c1.8,0,3.2,1.4,3.2,3.2v5.1c0,1.8-1.4,3.2-3.2,3.2H205c-1.8,0-3.2-1.4-3.2-3.2v-5.1
					C201.8,71.2,203.2,69.7,205,69.7z"/>
			</g>
			<g>
				<path class="st0" d="M220.3,69.7h1.2c1.8,0,3.2,1.4,3.2,3.2v5.1c0,1.8-1.4,3.2-3.2,3.2h-1.2c-1.8,0-3.2-1.4-3.2-3.2v-5.1
					C217.1,71.2,218.5,69.7,220.3,69.7z"/>
			</g>
			<g>
				<path class="st0" d="M235.6,69.7h1.2c1.8,0,3.2,1.4,3.2,3.2v5.1c0,1.8-1.4,3.2-3.2,3.2h-1.2c-1.8,0-3.2-1.4-3.2-3.2v-5.1
					C232.4,71.2,233.8,69.7,235.6,69.7z"/>
			</g>
			<g>
				<path class="st0" d="M250.9,69.7h1.2c1.8,0,3.2,1.4,3.2,3.2v5.1c0,1.8-1.4,3.2-3.2,3.2h-1.2c-1.8,0-3.2-1.4-3.2-3.2v-5.1
					C247.7,71.2,249.2,69.7,250.9,69.7z"/>
			</g>
			<g>
				<path class="st0" d="M266.3,69.7h1.2c1.8,0,3.2,1.4,3.2,3.2v5.1c0,1.8-1.4,3.2-3.2,3.2h-1.2c-1.8,0-3.2-1.4-3.2-3.2v-5.1
					C263.1,71.2,264.5,69.7,266.3,69.7z"/>
			</g>
			<g>
				<path class="st0" d="M281.6,69.7h1.2c1.8,0,3.2,1.4,3.2,3.2v5.1c0,1.8-1.4,3.2-3.2,3.2h-1.2c-1.8,0-3.2-1.4-3.2-3.2v-5.1
					C278.4,71.2,279.8,69.7,281.6,69.7z"/>
			</g>
			<g>
				<path class="st0" d="M296.9,69.7h1.2c1.8,0,3.2,1.4,3.2,3.2v5.1c0,1.8-1.4,3.2-3.2,3.2h-1.2c-1.8,0-3.2-1.4-3.2-3.2v-5.1
					C293.7,71.2,295.2,69.7,296.9,69.7z"/>
			</g>
			<g>
				<path class="st0" d="M312.2,69.7h1.2c1.8,0,3.2,1.4,3.2,3.2v5.1c0,1.8-1.4,3.2-3.2,3.2h-1.2c-1.8,0-3.2-1.4-3.2-3.2v-5.1
					C309,71.2,310.5,69.7,312.2,69.7z"/>
			</g>
			<g>
				<path class="st0" d="M327.6,69.7h1.2c1.8,0,3.2,1.4,3.2,3.2v5.1c0,1.8-1.4,3.2-3.2,3.2h-1.2c-1.8,0-3.2-1.4-3.2-3.2v-5.1
					C324.4,71.2,325.8,69.7,327.6,69.7z"/>
			</g>
			<g>
				<path class="st0" d="M342.9,69.7h1.2c1.8,0,3.2,1.4,3.2,3.2v5.1c0,1.8-1.4,3.2-3.2,3.2h-1.2c-1.8,0-3.2-1.4-3.2-3.2v-5.1
					C339.7,71.2,341.1,69.7,342.9,69.7z"/>
			</g>
			<g>
				<path class="st0" d="M358.2,69.7h1.2c1.8,0,3.2,1.4,3.2,3.2v5.1c0,1.8-1.4,3.2-3.2,3.2h-1.2c-1.8,0-3.2-1.4-3.2-3.2v-5.1
					C355,71.2,356.5,69.7,358.2,69.7z"/>
			</g>
			<g>
				<path class="st0" d="M373.6,69.7h1.2c1.8,0,3.2,1.4,3.2,3.2v5.1c0,1.8-1.4,3.2-3.2,3.2h-1.2c-1.8,0-3.2-1.4-3.2-3.2v-5.1
					C370.4,71.2,371.8,69.7,373.6,69.7z"/>
			</g>
			<g>
				<path class="st0" d="M161.2,105.6h-14.1c-3.3,0-6-2.7-6-6V53.1c0-3.3,2.7-6,6-6h14.1c3.3,0,6,2.7,6,6v46.6
					C167.2,103,164.5,105.6,161.2,105.6z M147.1,49.1c-2.2,0-4,1.8-4,4v46.6c0,2.2,1.8,4,4,4h14.1c2.2,0,4-1.8,4-4V53.1
					c0-2.2-1.8-4-4-4H147.1z"/>
			</g>
			<g>
				<circle class="st0" cx="154.2" cy="60.8" r="3.1"/>
			</g>
			<g>
				<path class="st0" d="M62.8,55.6l11.6-1.4c0.7-0.1,1.3,0.4,1.4,1.1c0,0.2,0,0.3,0,0.5l-5.2,17.5c-0.3,1-1.2,1.7-2.3,1.7h-1.8
					c-0.8,0-1.5-0.2-2.2-0.6l-10.4-6.2c-0.3-0.2-0.4-0.6-0.3-0.9c0,0,0-0.1,0.1-0.1L61,56.6C61.4,56,62.1,55.6,62.8,55.6z"/>
			</g>
			<g>
				<path class="st0" d="M78.8,54.9L73.6,74c-0.2,0.8,0.3,1.7,1.1,1.9c0.1,0,0.2,0,0.3,0.1L95,77c1,0,1.8-0.7,1.9-1.7c0,0,0,0,0-0.1
					V54.5c0-0.7-0.6-1.3-1.3-1.3H81C80,53.2,79.1,53.9,78.8,54.9z"/>
			</g>
			<g>
				<path class="st0" d="M51.2,67.4l8.2-11.1c0.2-0.2,0.1-0.6-0.1-0.7c-0.1-0.1-0.2-0.1-0.3-0.1H47.8c-2.5,2.2-8.3,9.1-14.7,15.7
					c6.6-1.4,14-3.1,17.1-3.2C50.6,67.9,50.9,67.7,51.2,67.4z"/>
			</g>
			<g>
				<circle class="st0" cx="101.5" cy="114.5" r="2.5"/>
			</g>
			<g class="st1">
				<circle class="st0" cx="101.5" cy="114.5" r="4"/>
			</g>
			<g>
				
					<rect x="102.9" y="113.4" transform="matrix(0.4988 -0.8667 0.8667 0.4988 -48.3685 147.5653)" class="st0" width="1" height="4.4"/>
			</g>
			<g>
				<path class="st0" d="M303.2,193.5h-5.6l-10-15.5l10.8,0.3L303.2,193.5z M298.7,191.5h1.8l-3.5-11.3l-5.6-0.2L298.7,191.5z"/>
			</g>
			<g>
				<path class="st0" d="M334.1,185.6h-8.5l-6.4-7.1h9.4L334.1,185.6z M326.5,183.6h3.5l-2.4-3.1h-3.9L326.5,183.6z"/>
			</g>
			<g class="st1">
				<path class="st0" d="M142.2,99.7h-5.7v10.5c0,1,0.8,1.8,1.8,1.8c0,0,0,0,0,0h31.9c1,0,1.9-0.9,1.9-1.9V99.7h-5.9
					c0,2.8-2.2,5-5,5h-14.1C144.3,104.7,142.1,102.4,142.2,99.7L142.2,99.7z"/>
			</g>
		</g>
	</g>
</g>
</svg>
