<?xml version="1.0" encoding="utf-8"?>
<!-- Generator: Adobe Illustrator 25.3.1, SVG Export Plug-In . SVG Version: 6.00 Build 0)  -->
<svg version="1.1" id="图层_1" xmlns="http://www.w3.org/2000/svg" xmlns:xlink="http://www.w3.org/1999/xlink" x="0px" y="0px"
	 viewBox="0 0 388 203.6" style="enable-background:new 0 0 388 203.6;" xml:space="preserve">
<style type="text/css">
	.st0{fill:#9E9E9E;}
	.st1{opacity:0.4;}
	.st2{clip-path:url(#SVGID_2_);}
</style>
<g id="图层_2_1_">
	<g id="图层_1-2">
		<g id="B737">
			<g>
				<path class="st0" d="M388,187.8H270.2c-29.5,0-57.9-1.3-95.1-4.5c-53-4.9-105.2-19.8-155.3-44C4.2,131,0.4,122.4,0,116.6
					c-0.5-6.5,3.1-12.8,10-17.9c17.1-11.3,37.3-21.5,62-31.4c0.8-0.9,1.6-1.8,2.3-2.7c0.7-0.8,1.4-1.6,2.1-2.4
					c8.2-9.2,18.1-16.6,29.2-21.9c17.6-8.4,36.1-14.6,58.3-21.5C219.2,4.2,261.3-0.9,388,0.1v3c-126.4-1-168.3,4-223.1,18.6
					c-22.1,6.8-40.4,13-57.9,21.3c-10.8,5.1-20.3,12.2-28.3,21.1c-0.7,0.8-1.4,1.6-2.1,2.4c-0.9,1-1.7,2-2.6,3l-0.2,0.3L73.4,70
					c-24.6,9.8-44.8,20-61.7,31.2c-6.1,4.4-9.1,9.7-8.7,15.2c0.5,7.1,7,14.3,18.2,20.2c49.7,24.1,101.6,38.8,154.2,43.7
					c37,3.1,65.4,4.5,94.8,4.5H388V187.8z"/>
			</g>
			<g>
				<polygon class="st0" points="388,203.6 386.1,203.6 375,186.8 376.7,185.7 387.2,201.6 388,201.6 				"/>
			</g>
		</g>
	</g>
</g>
<g class="st1">
	<g>
		<defs>
			<path id="SVGID_1_" d="M388,1.6c-124.1-1-167.3,3.7-223.5,18.7c-21.1,6.5-40.2,12.9-58.1,21.4c-10.9,5.2-20.7,12.5-28.8,21.5
				c-1.6,1.8-3.1,3.6-4.7,5.4c-23.4,9.3-44.3,19.7-62,31.3c-14.1,10.3-13.4,25.8,9.6,38c50.2,24.3,101.8,39,154.8,43.9
				c35.5,3,64.1,4.5,94.9,4.5H388V1.6z"/>
		</defs>
		<clipPath id="SVGID_2_">
			<use xlink:href="#SVGID_1_"  style="overflow:visible;"/>
		</clipPath>
		<g class="st2">
			<g>
				<g>
					
						<rect x="-164.1" y="100.3" transform="matrix(0.7071 -0.7071 0.7071 0.7071 -72.0061 27.6656)" class="st0" width="323" height="1"/>
				</g>
			</g>
			<g>
				<g>
					
						<rect x="-151.3" y="100.3" transform="matrix(0.7071 -0.7071 0.7071 0.7071 -68.2694 36.7287)" class="st0" width="323" height="1"/>
				</g>
			</g>
			<g>
				<g>
					
						<rect x="-138.5" y="100.3" transform="matrix(0.7071 -0.7071 0.7071 0.7071 -64.5327 45.7919)" class="st0" width="323" height="1"/>
				</g>
			</g>
			<g>
				<g>
					
						<rect x="-125.7" y="100.3" transform="matrix(0.7071 -0.7071 0.7071 0.7071 -60.796 54.8551)" class="st0" width="323" height="1"/>
				</g>
			</g>
			<g>
				<g>
					
						<rect x="-112.8" y="100.3" transform="matrix(0.7071 -0.7071 0.7071 0.7071 -56.9886 63.9476)" class="st0" width="323" height="1"/>
				</g>
			</g>
			<g>
				<g>
					
						<rect x="-100" y="100.3" transform="matrix(0.7071 -0.7071 0.7071 0.7071 -53.2519 73.0108)" class="st0" width="323" height="1"/>
				</g>
			</g>
			<g>
				<g>
					
						<rect x="-87.2" y="100.3" transform="matrix(0.7071 -0.7071 0.7071 0.7071 -49.5152 82.074)" class="st0" width="323" height="1"/>
				</g>
			</g>
			<g>
				<g>
					
						<rect x="-74.3" y="100.3" transform="matrix(0.7071 -0.7071 0.7071 0.7071 -45.708 91.1666)" class="st0" width="323" height="1"/>
				</g>
			</g>
			<g>
				<g>
					
						<rect x="-61.5" y="100.3" transform="matrix(0.7071 -0.7071 0.7071 0.7071 -41.9712 100.2296)" class="st0" width="323" height="1"/>
				</g>
			</g>
			<g>
				<g>
					
						<rect x="-48.7" y="100.3" transform="matrix(0.7071 -0.7071 0.7071 0.7071 -38.2345 109.2929)" class="st0" width="323" height="1"/>
				</g>
			</g>
			<g>
				<g>
					
						<rect x="-35.8" y="100.2" transform="matrix(0.7071 -0.7071 0.7071 0.7071 -34.4271 118.3853)" class="st0" width="323" height="1"/>
				</g>
			</g>
			<g>
				<g>
					
						<rect x="-23" y="100.3" transform="matrix(0.7071 -0.7071 0.7071 0.7071 -30.6905 127.4486)" class="st0" width="323" height="1"/>
				</g>
			</g>
			<g>
				<g>
					
						<rect x="-10.2" y="100.3" transform="matrix(0.7071 -0.7071 0.7071 0.7071 -26.9537 136.5116)" class="st0" width="323" height="1"/>
				</g>
			</g>
			<g>
				<g>
					
						<rect x="2.6" y="100.3" transform="matrix(0.7071 -0.7071 0.7071 0.7071 -23.2171 145.575)" class="st0" width="323" height="1"/>
				</g>
			</g>
			<g>
				<g>
					
						<rect x="15.5" y="100.3" transform="matrix(0.7071 -0.7071 0.7071 0.7071 -19.4096 154.6673)" class="st0" width="323" height="1"/>
				</g>
			</g>
			<g>
				<g>
					
						<rect x="28.3" y="100.3" transform="matrix(0.7071 -0.7071 0.7071 0.7071 -15.673 163.7306)" class="st0" width="323" height="1"/>
				</g>
			</g>
			<g>
				<g>
					
						<rect x="41.1" y="100.3" transform="matrix(0.7071 -0.7071 0.7071 0.7071 -11.9362 172.7937)" class="st0" width="323" height="1"/>
				</g>
			</g>
			<g>
				<g>
					
						<rect x="54" y="100.3" transform="matrix(0.7071 -0.7071 0.7071 0.7071 -8.1289 181.8863)" class="st0" width="323" height="1"/>
				</g>
			</g>
			<g>
				<g>
					
						<rect x="66.8" y="100.3" transform="matrix(0.7071 -0.7071 0.7071 0.7071 -4.3922 190.9494)" class="st0" width="323" height="1"/>
				</g>
			</g>
			<g>
				<g>
					
						<rect x="79.6" y="100.3" transform="matrix(0.7071 -0.7071 0.7071 0.7071 -0.6555 200.0127)" class="st0" width="323" height="1"/>
				</g>
			</g>
			<g>
				<g>
					
						<rect x="92.5" y="100.2" transform="matrix(0.7071 -0.7071 0.7071 0.7071 3.1519 209.105)" class="st0" width="323" height="1"/>
				</g>
			</g>
			<g>
				<g>
					
						<rect x="105.3" y="100.3" transform="matrix(0.7071 -0.7071 0.7071 0.7071 6.8886 218.1683)" class="st0" width="323" height="1"/>
				</g>
			</g>
			<g>
				<g>
					
						<rect x="118.1" y="100.3" transform="matrix(0.7071 -0.7071 0.7071 0.7071 10.6254 227.2314)" class="st0" width="323" height="1"/>
				</g>
			</g>
			<g>
				<g>
					
						<rect x="130.9" y="100.3" transform="matrix(0.7071 -0.7071 0.7071 0.7071 14.3619 236.2947)" class="st0" width="323" height="1"/>
				</g>
			</g>
			<g>
				<g>
					
						<rect x="143.8" y="100.3" transform="matrix(0.7071 -0.7071 0.7071 0.7071 18.1694 245.3871)" class="st0" width="323" height="1"/>
				</g>
			</g>
			<g>
				<g>
					
						<rect x="156.6" y="100.3" transform="matrix(0.7071 -0.7071 0.7071 0.7071 21.906 254.4504)" class="st0" width="323" height="1"/>
				</g>
			</g>
			<g>
				<g>
					
						<rect x="169.4" y="100.3" transform="matrix(0.7071 -0.7071 0.7071 0.7071 25.6427 263.5135)" class="st0" width="323" height="1"/>
				</g>
			</g>
			<g>
				<g>
					
						<rect x="182.3" y="100.3" transform="matrix(0.7071 -0.7071 0.7071 0.7071 29.4501 272.606)" class="st0" width="323" height="1"/>
				</g>
			</g>
			<g>
				<g>
					
						<rect x="195.1" y="100.3" transform="matrix(0.7071 -0.7071 0.7071 0.7071 33.1868 281.6692)" class="st0" width="323" height="1"/>
				</g>
			</g>
			<g>
				<g>
					
						<rect x="207.9" y="100.3" transform="matrix(0.7071 -0.7071 0.7071 0.7071 36.9235 290.7324)" class="st0" width="323" height="1"/>
				</g>
			</g>
			<g>
				<g>
					
						<rect x="220.7" y="100.3" transform="matrix(0.7071 -0.7071 0.7071 0.7071 40.6602 299.7956)" class="st0" width="323" height="1"/>
				</g>
			</g>
			<g>
				<g>
					
						<rect x="233.6" y="100.3" transform="matrix(0.7071 -0.7071 0.7071 0.7071 44.4676 308.8881)" class="st0" width="323" height="1"/>
				</g>
			</g>
			<g>
				<g>
					
						<rect x="246.4" y="100.3" transform="matrix(0.7071 -0.7071 0.7071 0.7071 48.2043 317.9513)" class="st0" width="323" height="1"/>
				</g>
			</g>
			<g>
				<g>
					
						<rect x="259.2" y="100.3" transform="matrix(0.7071 -0.7071 0.7071 0.7071 51.941 327.0145)" class="st0" width="323" height="1"/>
				</g>
			</g>
			<g>
				<g>
					
						<rect x="272.1" y="100.3" transform="matrix(0.7071 -0.7071 0.7071 0.7071 55.7483 336.1069)" class="st0" width="323" height="1"/>
				</g>
			</g>
			<g>
				<g>
					
						<rect x="284.9" y="100.3" transform="matrix(0.7071 -0.7071 0.7071 0.7071 59.485 345.1701)" class="st0" width="323" height="1"/>
				</g>
			</g>
			<g>
				<g>
					
						<rect x="297.7" y="100.3" transform="matrix(0.7071 -0.7071 0.7071 0.7071 63.2217 354.2333)" class="st0" width="323" height="1"/>
				</g>
			</g>
			<g>
				<g>
					
						<rect x="310.6" y="100.3" transform="matrix(0.7071 -0.7071 0.7071 0.7071 67.0291 363.3258)" class="st0" width="323" height="1"/>
				</g>
			</g>
			<g>
				<g>
					
						<rect x="323.4" y="100.3" transform="matrix(0.7071 -0.7071 0.7071 0.7071 70.7658 372.389)" class="st0" width="323" height="1"/>
				</g>
			</g>
		</g>
	</g>
</g>
</svg>
